<svg enable-background="new 0 0 512 512" viewBox="0 0 512 512" xmlns="http://www.w3.org/2000/svg"><g id="_x30_1_Ai_Brain"><g><path d="m30.823 305.313h4.536c10.959 0 19.842 8.884 19.842 19.842v51.792c0 10.959 8.884 19.842 19.842 19.842h58.506c10.959 0 19.842 8.884 19.842 19.842v51.566h180.691v-12.805c0-53.811 10.142-107.132 29.654-157.281 76.999-197.897-79.986-281.885-201.442-246.395-101.117 29.573-110.632 133.314-111.474 157.218-.119 3.369-1.088 6.629-2.826 9.518l-34.172 56.788c-7.959 13.224 1.566 30.073 17.001 30.073z" fill="#fff"/><path d="m144.466 202.138c-.842-1.456 12.111 20.97 27.459 47.533 3.761 6.447 10.568 10.398 18.037 10.398h54.833c7.513 0 14.249-4.011 18.037-10.398.253-.437 27.717-47.98 27.459-47.533 3.693-6.451 3.693-14.387 0-20.838.842 1.455-12.106-20.945-27.459-47.491-3.582-6.141-10.308-10.44-18.037-10.44h-54.833c-4.499 0-8.785 1.443-12.265 4.032-3.341 2.413-3.285.489-33.231 53.9-3.735 6.449-3.735 14.386 0 20.837z" fill="#c9def7"/><path d="m166.118 191.732 25.638 44.376h51.239l25.638-44.376-25.638-44.395h-51.239z" fill="#fff"/><g fill="#c9def7"><path d="m486.445 349.732c-8.079 0-14.639-6.54-14.639-14.619s6.56-14.639 14.639-14.639 14.619 6.559 14.619 14.639-6.54 14.619-14.619 14.619z"/><path d="m469.644 284.822c-8.079 0-14.639-6.54-14.639-14.619s6.56-14.639 14.639-14.639 14.619 6.559 14.619 14.639-6.539 14.619-14.619 14.619z"/><path d="m486.445 60.145c-8.079 0-14.639 6.54-14.639 14.619s6.56 14.639 14.639 14.639 14.619-6.559 14.619-14.639c0-8.079-6.539-14.619-14.619-14.619z"/><path d="m469.644 125.055c-8.079 0-14.639 6.54-14.639 14.619s6.56 14.639 14.639 14.639 14.619-6.559 14.619-14.639c0-8.079-6.539-14.619-14.619-14.619z"/><path d="m469.644 219.568c-8.079 0-14.639-6.54-14.639-14.619s6.56-14.639 14.639-14.639 14.619 6.559 14.619 14.639c0 8.079-6.539 14.619-14.619 14.619z"/></g><path d="m434.206 113.809c28.581 0 42.562-20.805 43.597-21.61 13.33 6.64 28.163-3.314 28.163-17.434 0-10.764-8.756-19.521-19.521-19.521-10.774 0-19.54 8.756-19.54 19.521 0 4.104 1.285 7.907 3.455 11.054-1.97 1.544-11.175 18.187-36.155 18.187h-74.613c-.215 0-.399.096-.607.123-43.572-58.505-126.684-77.966-198.066-57.118-105.111 30.741-114.234 140.133-114.997 161.748-.089 2.522-.826 4.999-2.127 7.165l-34.175 56.789c-4.659 7.744-4.786 17.065-.337 24.934s12.502 12.566 21.541 12.566h4.535c8.237 0 14.94 6.703 14.94 14.94v51.792c0 13.646 11.102 24.745 24.745 24.745h58.505c8.24 0 14.943 6.703 14.943 14.94v51.565c0 2.707 2.195 4.901 4.901 4.901h180.691c2.707 0 4.901-2.195 4.901-4.901.68-8.445-4.893-76.314 27.15-162.326h68.071c23.212 0 35.316 17.532 36.155 18.189-2.171 3.148-3.455 6.951-3.455 11.055 0 10.762 8.766 19.518 19.54 19.518 10.76 0 19.518-8.754 19.521-19.518 0-14.093-14.813-24.086-28.163-17.435-1.047-.814-15.004-21.612-43.597-21.612h-64.513c6.421-17.061 11.191-33.646 14.379-49.677h41.64c17.99 0 27.355 12.393 27.846 12.757-2.171 3.148-3.455 6.951-3.455 11.055 0 10.764 8.766 19.521 19.54 19.521 10.764 0 19.521-8.756 19.521-19.521 0-14.094-14.814-24.087-28.164-17.434-.494-.367-12.589-16.18-35.288-16.18h-39.826c1.463-9.137 2.435-18.093 2.822-26.81h62.073c2.167 8.42 9.766 14.689 18.861 14.689h.005c10.791 0 19.516-8.722 19.516-19.518 0-10.774-8.756-19.54-19.521-19.54-9.045 0-16.603 6.209-18.818 14.567h-61.986c-.022-9.169-.657-18.071-1.91-26.686h38.784c22.817 0 34.798-15.818 35.288-16.182 13.318 6.636 28.164-3.299 28.164-17.434 0-10.764-8.756-19.521-19.521-19.521-10.774 0-19.54 8.756-19.54 19.521 0 4.104 1.284 7.907 3.455 11.054-.51.379-9.972 12.76-27.846 12.76h-40.532c-3.711-18.033-10.204-34.696-19.564-49.679h68.589zm52.239-48.763c5.358 0 9.719 4.36 9.719 9.719 0 5.37-4.36 9.738-9.719 9.738-5.37 0-9.738-4.367-9.738-9.738.001-5.358 4.368-9.719 9.738-9.719zm9.719 270.066c-.002 5.358-4.36 9.719-9.719 9.719-5.37 0-9.738-4.358-9.738-9.716 0-5.37 4.367-9.738 9.738-9.738 5.359 0 9.719 4.367 9.719 9.735zm-16.802-64.909c0 5.358-4.36 9.718-9.719 9.718-5.37 0-9.738-4.36-9.738-9.718 0-5.37 4.367-9.738 9.738-9.738 5.358 0 9.719 4.368 9.719 9.738zm-9.719-74.992c5.358 0 9.719 4.367 9.719 9.738 0 5.373-4.336 9.716-9.714 9.716-.002 0-.002 0-.002 0-.002 0-.002 0-.002 0-5.37 0-9.738-4.358-9.738-9.716 0-5.37 4.367-9.738 9.737-9.738zm0-65.256c5.358 0 9.719 4.36 9.719 9.719 0 5.37-4.36 9.738-9.719 9.738-5.37 0-9.738-4.367-9.738-9.738.001-5.358 4.368-9.719 9.738-9.719zm-140.46 333.34h-170.889v-46.664c0-13.643-11.102-24.743-24.745-24.743h-58.505c-8.24 0-14.943-6.703-14.943-14.943v-51.792c0-13.643-11.099-24.743-24.743-24.743h-4.535c-5.459 0-10.322-2.836-13.007-7.589-2.687-4.75-2.611-10.379.203-15.055l34.174-56.789c2.156-3.587 3.377-7.692 3.525-11.872.72-20.435 9.309-123.838 107.95-152.684 125.583-36.688 268.312 52.778 195.5 239.912-34.233 87.998-29.529 161.725-29.985 166.962z" fill="#0c76f0"/><path d="m247.237 144.886c-.874-1.517-2.491-2.451-4.243-2.451h-51.237c-1.752 0-3.37.933-4.243 2.451l-25.64 44.395c-.878 1.517-.878 3.386 0 4.904l25.64 44.376c.876 1.515 2.494 2.448 4.243 2.448h51.237c1.749 0 3.367-.933 4.243-2.448l25.64-44.376c.878-1.517.878-3.386 0-4.904zm-7.072 86.321h-45.58l-22.809-39.475 22.809-39.494h45.58l22.809 39.494z" fill="#0c76f0"/><path d="m305.019 156.916c2.707 0 4.901-2.195 4.901-4.901s-2.195-4.901-4.901-4.901h-28.832l-9.121-15.776c-1.376-2.358-3.128-4.411-5.105-6.189v-21.093c0-2.707-2.194-4.901-4.901-4.901s-4.901 2.195-4.901 4.901v15.543c-5.783-1.755-8.989-.911-16.637-1.133v-14.409c0-2.707-2.195-4.901-4.901-4.901s-4.901 2.195-4.901 4.901v14.409h-16.683v-14.409c0-2.707-2.195-4.901-4.901-4.901s-4.901 2.195-4.901 4.901v14.409c-7.829.223-10.911-.601-16.637 1.111v-15.52c0-2.707-2.195-4.901-4.901-4.901-2.707 0-4.901 2.195-4.901 4.901v20.87c-2.224 1.91-5.084 5.814-14.572 22.187h-28.528c-2.707 0-4.901 2.195-4.901 4.901s2.195 4.901 4.901 4.901h22.903c-2.725 4.784-5.839 10.295-9.427 16.68h-13.476c-2.707 0-4.901 2.195-4.901 4.901 0 2.707 2.195 4.901 4.901 4.901h8.517c-1.844 5.393-1.845 11.247-.001 16.639h-8.516c-2.707 0-4.901 2.195-4.901 4.901s2.195 4.901 4.901 4.901h13.558l9.636 16.68h-23.194c-2.707 0-4.901 2.195-4.901 4.901s2.195 4.901 4.901 4.901h28.857c8.625 14.223 9.018 17.315 14.243 21.997v21.061c0 2.707 2.195 4.901 4.901 4.901 2.707 0 4.901-2.194 4.901-4.901v-15.535c5.764 1.739 8.875.902 16.637 1.126v14.409c0 2.707 2.195 4.901 4.901 4.901s4.901-2.194 4.901-4.901v-14.409h16.683v14.409c0 2.707 2.195 4.901 4.901 4.901s4.901-2.194 4.901-4.901v-14.409c7.819-.22 10.938.596 16.637-1.106v15.515c0 2.707 2.195 4.901 4.901 4.901s4.901-2.194 4.901-4.901v-21.06c4.224-3.819 4.783-5.625 14.242-21.997h28.815c2.707 0 4.901-2.195 4.901-4.901s-2.195-4.901-4.901-4.901h-23.152c2.993-5.175 7.203-12.442 9.512-16.68h13.639c2.707 0 4.901-2.195 4.901-4.901s-2.195-4.901-4.901-4.901h-8.492c1.825-5.392 1.825-11.247 0-16.639h8.492c2.707 0 4.901-2.195 4.901-4.901 0-2.707-2.195-4.901-4.901-4.901h-13.52l-9.644-16.68h23.166zm-46.4 90.255c-2.972 5.009-8.139 7.998-13.823 7.998h-54.834c-5.734 0-10.894-2.977-13.794-7.95-14.268-24.697-26.468-45.817-27.428-47.482-.012-.019-.022-.036-.034-.055-.002-.005-.005-.007-.005-.012-2.838-4.908-2.838-11.006.038-15.972 2.564-4.573 27.107-49.06 31.221-51.9.788-.422 3.636-3.53 10.001-3.53h54.834c5.631 0 10.922 3.07 13.794 7.993 14.294 24.716 26.506 45.841 27.435 47.451.005.007.01.014.014.024 2.819 4.923 2.819 11.042.005 15.957-37.257 64.498-24.839 42.939-27.424 47.478z" fill="#0c76f0"/></g></g><g id="Layer_1"/></svg>