<svg height="512" viewBox="0 0 58 60" width="512" xmlns="http://www.w3.org/2000/svg"><g id="Page-1" fill="none" fill-rule="evenodd"><g id="025---AI"><g id="Icons_copy_2" transform="translate(1 1)"><ellipse id="Oval" cx="28" cy="29" fill="#e8edfc" rx="15" ry="29"/><path id="Path" d="m28 0c-.5034725.00054007-1.0057462.04909319-1.5.145 7.58 1.455 13.5 13.818 13.5 28.855s-5.92 27.4-13.5 28.855c.4942538.0959068.9965275.1444599 1.5.145 8.284 0 15-12.984 15-29s-6.716-29-15-29z" fill="#cad9fc"/><path id="Path" d="m54.16 40.24c.36-3.34-1.03-7.28-3.81-11.24-2.2611459-3.1242458-4.9470234-5.9178276-7.98-8.3-2.1645694-1.7395857-4.4615364-3.3076752-6.87-4.69-2.4009952-1.3924992-4.9049621-2.5993511-7.49-3.61h-.01c-3.5777154-1.4304565-7.3371135-2.3560021-11.17-2.75-5.19-.46-9.56.45-12.24 2.8l-2.75 5.31c-.36 3.34 1.03 7.28 3.81 11.24 2.26114592 3.1242458 4.9470234 5.9178276 7.98 8.3 2.1645694 1.7395857 4.4615364 3.3076752 6.87 4.69 2.4009952 1.3924992 4.9049621 2.5993511 7.49 3.61h.01c3.5777154 1.4304565 7.3371135 2.3560021 11.17 2.75 5.19.46 9.56-.45 12.24-2.8z" fill="#e8edfc"/><path id="Path" d="m50.35 29c-2.2611459-3.1242458-4.9470234-5.9178276-7.98-8.3-2.1645694-1.7395857-4.4615364-3.3076752-6.87-4.69-2.4009952-1.3924992-4.9049621-2.5993511-7.49-3.61h-.01c-3.5777154-1.4304565-7.3371135-2.3560021-11.17-2.75-1.3442464-.12167292-2.6957756-.14139595-4.043-.059.347.018.688.028 1.043.059 3.8328865.3939979 7.5922846 1.3195435 11.17 2.75h.01c2.5850379 1.0106489 5.0890048 2.2175008 7.49 3.61 2.4084636 1.3823248 4.7054306 2.9504143 6.87 4.69 3.0329766 2.3821724 5.7188541 5.1757542 7.98 8.3 2.78 3.96 4.17 7.9 3.81 11.24l-2.75 5.31c-1.948 1.708-4.8 2.646-8.2 2.859 4.727.254 8.7-.67 11.2-2.859l2.75-5.31c.36-3.34-1.03-7.28-3.81-11.24z" fill="#cad9fc"/><path id="Path" d="m54.16 17.76c.36 3.34-1.03 7.28-3.81 11.24-2.2611459 3.1242458-4.9470234 5.9178276-7.98 8.3-2.1645694 1.7395857-4.4615364 3.3076752-6.87 4.69-2.404404 1.3926023-4.9117022 2.5994485-7.5 3.61h-.01c-3.5746409 1.4292376-7.3305665 2.3547569-11.16 2.75-5.19.46-9.56-.45-12.24-2.8l-2.75-5.31c-.36-3.34 1.03-7.28 3.81-11.24 2.26114592-3.1242458 4.9470234-5.9178276 7.98-8.3 2.1645694-1.7395857 4.4615364-3.3076752 6.87-4.69 2.404404-1.3926023 4.9117022-2.5994485 7.5-3.61h.01c3.5746409-1.4292376 7.3305665-2.3547569 11.16-2.75 5.19-.46 9.56.45 12.24 2.8z" fill="#e8edfc"/><path id="Path" d="m54.16 17.76-2.75-5.31c-2.5-2.189-6.471-3.113-11.2-2.859 3.4.213 6.249 1.151 8.2 2.859l2.75 5.31c.36 3.34-1.03 7.28-3.81 11.24-2.2611459 3.1242458-4.9470234 5.9178276-7.98 8.3-2.1645694 1.7395857-4.4615364 3.3076752-6.87 4.69-2.404404 1.3926023-4.9117022 2.5994485-7.5 3.61h-.01c-3.5746409 1.4292376-7.3305665 2.3547569-11.16 2.75-.355.031-.7.041-1.043.059 1.3472244.082396 2.6987536.0626729 4.043-.059 3.8294335-.3952431 7.5853591-1.3207624 11.16-2.75h.01c2.5882978-1.0105515 5.095596-2.2173977 7.5-3.61 2.4084636-1.3823248 4.7054306-2.9504143 6.87-4.69 3.0329766-2.3821724 5.7188541-5.1757542 7.98-8.3 2.78-3.96 4.17-7.9 3.81-11.24z" fill="#cad9fc"/><g fill="#e8edfc"><circle id="Oval" cx="3" cy="15" r="3"/><circle id="Oval" cx="53" cy="43" r="3"/><circle id="Oval" cx="3" cy="43" r="3"/><circle id="Oval" cx="53" cy="15" r="3"/><path id="Path" d="m43 29c0 1.82-.09 3.6-.25 5.33-.1 1.01-.22 2-.38 2.97-1.09.88-2.24 1.73-3.45 2.55-1.09.74-2.23 1.46-3.42 2.14-2.404404 1.3926023-4.9117022 2.5994485-7.5 3.61h-.01c-.49-.19-.99-.39-1.49-.61-2.0591556-.877035-4.0628787-1.8788965-6-3-2.4084636-1.3823248-4.7054306-2.9504143-6.87-4.69-.8399939-5.5014543-.8399939-11.0985457 0-16.6 2.1645694-1.7395857 4.4615364-3.3076752 6.87-4.69 1.9405146-1.1211896 3.94757-2.1230475 6.01-3 .5-.22 1-.42 1.49-.61h.01c2.5850379 1.0106489 5.0890048 2.2175008 7.49 3.61 1.19.68 2.33 1.4 3.42 2.14 1.21.82 2.36 1.67 3.45 2.55.16.97.28 1.96.38 2.97.16 1.73.25 3.51.25 5.33z"/></g><path id="Path" d="m42.75 23.67c-.1-1.01-.22-2-.38-2.97-1.09-.88-2.24-1.73-3.45-2.55-1.09-.74-2.23-1.46-3.42-2.14-2.4009952-1.3924992-4.9049621-2.5993511-7.49-3.61h-.01c-.49.19-.99.39-1.49.61h-.008c2.0583691.8787347 4.0619908 1.8805455 6 3 1.19.68 2.33 1.4 3.42 2.14 1.21.82 2.36 1.67 3.45 2.55.16.97.28 1.96.38 2.97.16 1.73.25 3.51.25 5.33s-.09 3.6-.25 5.33c-.1 1.01-.22 2-.38 2.97-1.09.88-2.24 1.73-3.45 2.55-1.09.74-2.23 1.46-3.42 2.14-1.9399904 1.120246-3.9459895 2.1220767-6.007 3h.007c.5.22 1 .42 1.49.61h.008c2.5882978-1.0105515 5.095596-2.2173977 7.5-3.61 1.19-.68 2.33-1.4 3.42-2.14 1.21-.82 2.36-1.67 3.45-2.55.16-.97.28-1.96.38-2.97.16-1.73.25-3.51.25-5.33s-.09-3.6-.25-5.33z" fill="#cad9fc"/></g><g id="Icons_copy" fill="#fff" transform="translate(0 10)"><path id="Path" d="m44.036.6c-.3-.016-.6-.034-.911-.039.015.031.031.06.045.091.294-.028.579-.039.866-.052z"/><path id="Path" d="m43.17 39.35c-.014.031-.03.06-.045.091.31-.005.611-.023.912-.039-.288-.015-.572-.026-.867-.052z"/><path id="Path" d="m55.41 3.45.006.012c.027-.017.057-.03.084-.046-.1296827-.07693302-.2650806-.14379617-.405-.2.105.084.217.149.315.234z"/><path id="Path" d="m55.41 36.55c-.1.085-.213.155-.315.237.1399194-.0562038.2753173-.123067.405-.2-.027-.016-.057-.029-.084-.046z"/><path id="Path" d="m1 34c0 1.6568542 1.34314575 3 3 3 .52810593-.0027453 1.0459153-.1463511 1.5-.416-.98689562-.5670197-1.56610766-1.6453271-1.49393321-2.7812255.07217444-1.1358984.78320769-2.1322243 1.83393321-2.5697745-.358-3.333 1.032-7.276 3.81-11.233-2.778-3.958-4.168-7.895-3.81-11.233-1.05072552-.43755022-1.76175877-1.43387608-1.83393321-2.56977447-.07217445-1.1358984.50703759-2.21420583 1.49393321-2.78122553-.4540847-.26964885-.97189407-.41325465-1.5-.416-1.42910858-.00038813-2.66009489 1.00736828-2.94190773 2.40841539s.46379315 2.80638407 1.78190773 3.35858461c-.358 3.338 1.032 7.275 3.81 11.233-2.778 3.957-4.168 7.9-3.81 11.233-1.11477906.4674027-1.84013754 1.5581999-1.84 2.767z"/></g><g id="Icons"><path id="Path" d="m12.85 9.658.2 1.99c-2.4736332.1400871-4.84576117 1.0310304-6.8 2.554l-1.319-1.502c2.26507757-1.8024006 5.02976281-2.86442517 7.919-3.042z" fill="#fff"/><g fill="#428dff"><path id="Path" d="m9.058 12.486c-.55228475.0027614-1.00223858-.4427153-1.005-.995s.44271525-1.0022386.995-1.005h.01c.55228475 0 1 .4477153 1 1s-.44771525 1-1 1z"/><path id="Shape" d="m18.615 36.923c.2447927.1021296.5201322.1028221.7654356.0019252.2453034-.100897.4404725-.2951167.5425644-.5399252l1.41-3.385h5.334l1.41 3.385c.2126296.5097588.7982412.7506296 1.308.538s.7506296-.7982412.538-1.308l-5-12c-.1553161-.3725487-.5193719-.6152001-.923-.6152001s-.7676839.2426514-.923.6152001l-5 12c-.1021296.2447927-.1028221.5201322-.0019252.7654356.100897.2453034.2951167.4404725.5399252.5425644zm5.385-10.323 1.833 4.4h-3.666z" fill-rule="nonzero"/><path id="Path" d="m32 35c-.5522847 0-1 .4477153-1 1s.4477153 1 1 1h6c.5522847 0 1-.4477153 1-1s-.4477153-1-1-1h-2v-10h2c.5522847 0 1-.4477153 1-1s-.4477153-1-1-1h-6c-.5522847 0-1 .4477153-1 1s.4477153 1 1 1h2v10z"/><path id="Shape" d="m0 44c0 2.209139 1.790861 4 4 4 .5010525-.001839.99718978-.0988945 1.462-.286 2.364 1.81 5.7 2.754 9.8 2.754.618 0 1.26-.029 1.911-.071 2.904 5.934 7.094 9.603 11.827 9.603s8.923-3.669 11.828-9.6c.652.042 1.293.071 1.911.071 4.1 0 7.436-.944 9.8-2.754.4646984.1859546.9604776.2819885 1.461.283 1.7655143-.0050387 3.3189189-1.1669752 3.8224521-2.8591692.5035331-1.6921939-.1619103-3.514376-1.6374521-4.4838308.14-3.22-1.105-6.874-3.639-10.657 2.534-3.782 3.779-7.436 3.639-10.657 1.7288249-1.1156654 2.3261283-3.3628054 1.3794375-5.1896391-.9466909-1.8268337-3.1270608-2.6345444-5.0354375-1.8653609-2.717-2.079-6.729-3-11.7-2.676-2.902-5.939-7.094-9.612-11.829-9.612s-8.924 3.67-11.828 9.605c-1.439613-.10325574-2.8853519-.08552687-4.322.053-.2706577.02140832-.5202706.15425264-.6892058.3667963-.1689352.2125436-.24202.4856971-.2017942.7542037.0801763.5314144.5571892.910668 1.093.869 1.0782123-.1063263 2.1626694-.1350669 3.245-.086-1.2407293 3.0978838-2.1198761 6.3285805-2.62 9.628-2.5862043 2.082639-4.92693833 4.4528964-6.977 7.065-1.68897493-2.4506645-2.6935204-5.307578-2.91-8.276.071 0 .138.021.21.021 1.99531433.0080844 3.69395922-1.4499947 3.98832762-3.4234921.2943684-1.9734973-.9048262-3.8638205-2.81564498-4.4383779s-3.95368066.3409231-4.79653075 2.1494995c-.8428501 1.8085763-.23003886 3.9616791 1.43884811 5.0553705-.141 3.219 1.105 6.873 3.639 10.657-2.534 3.783-3.78 7.437-3.639 10.657-1.1310166.736055-1.81375102 1.9935653-1.815 3.343zm4-30c1.1045695 0 2 .8954305 2 2s-.8954305 2-2 2-2-.8954305-2-2 .8954305-2 2-2zm-2 30c0-1.1045695.8954305-2 2-2s2 .8954305 2 2-.8954305 2-2 2c-.53043298 0-1.03914081-.2107137-1.41421356-.5857864-.37507276-.3750728-.58578644-.8837806-.58578644-1.4142136zm16.409-32.28c2.6621442.3188087 5.284969.9075036 7.828 1.757-1.7899567.7988438-3.5379045 1.6886717-5.237 2.666-1.7050763.9840554-3.3567319 2.0578985-4.948 3.217.5243102-2.6200674 1.31405-5.179937 2.357-7.64zm-2.86 10.533c2.0394083-1.616148 4.1956309-3.0791438 6.451-4.377 2.2500518-1.3012425 4.5915291-2.4375575 7.006-3.4 2.4123994.9627554 4.7518595 2.0990646 7 3.4 2.2550875 1.2977989 4.4109817 2.7607988 6.45 4.377.365744 2.566067.5475408 5.1550015.544 7.747.0018847 2.5921179-.1815831 5.181053-.549 7.747-2.0394083 1.616148-4.1956309 3.0791438-6.451 4.377-2.2481741 1.3002974-4.5876362 2.4359392-7 3.398-2.4124902-.9625498-4.7519649-2.0988661-7-3.4-2.2550875-1.2977989-4.4109817-2.7607988-6.45-4.377-.7319985-5.1387298-.7319985-10.3552702 0-15.494zm26.4-2.893c-1.5915106-1.1592508-3.243507-2.2330986-4.949-3.217-1.6966234-.9762054-3.4415173-1.8660079-5.228-2.666 2.5403981-.8491288 5.1605325-1.4378214 7.82-1.757 1.0422661 2.4601378 1.8313353 5.0200054 2.355 7.64zm-2.358 28.92c-2.6621442-.3188087-5.284969-.9075036-7.828-1.757 1.7899567-.7988438 3.5379045-1.6886717 5.237-2.666 1.7050763-.9840554 3.3567319-2.0578985 4.948-3.217-.5243102 2.6200674-1.31405 5.179937-2.357 7.64zm5.114-24.137c1.992775 1.765982 3.8025787 3.7282219 5.402 5.857-1.5988124 2.1286643-3.407941 4.0908987-5.4 5.857.1963939-1.9461416.2941856-3.9009744.293-5.857.0005466-1.9560601-.0979127-3.9108942-.295-5.857zm-23.705 19.714c1.6966234.9762054 3.4415173 1.8660079 5.228 2.666-2.5403981.8491288-5.1605325 1.4378214-7.82 1.757-1.042608-2.4601004-1.8320125-5.019969-2.356-7.64 1.5911859 1.1592208 3.2428479 2.2330682 4.948 3.217zm8 14.143c-3.756 0-7.169-2.979-9.686-7.811 3.3142221-.469867 6.5639434-1.3166868 9.686-2.524 3.1232675 1.2078318 6.3743733 2.0546627 9.69 2.524-2.522 4.832-5.934 7.811-9.69 7.811zm25-12c-1.1045695 0-2-.8954305-2-2s.8954305-2 2-2 2 .8954305 2 2-.8954305 2-2 2zm.21-5.979c-.071 0-.138-.021-.21-.021-2.209139 0-4 1.790861-4 4 .0037788.8942621.3100558 1.7609309.869 2.459-2.178 1.437-5.357 2.12-9.165 1.977 1.2398089-3.0974291 2.1186038-6.3273947 2.619-9.626 2.5864586-2.0827319 4.9272184-4.4533509 6.977-7.066 1.6884471 2.4513057 2.6929319 5.3083918 2.91 8.277zm1.79-24.021c0 1.1045695-.8954305 2-2 2s-2-.8954305-2-2 .8954305-2 2-2 2 .8954305 2 2zm-5.131-2.459c-.5589442.6980691-.8652212 1.5647379-.869 2.459 0 2.209139 1.790861 4 4 4 .072 0 .139-.017.21-.021-.216782 2.9686678-1.2212924 5.8258268-2.91 8.277-2.0501002-2.6126991-4.391197-4.9833196-6.978-7.066-.5010669-3.2987894-1.3808785-6.5287921-2.622-9.626 3.811-.144 6.992.536 9.169 1.977zm-21.869-11.541c3.756 0 7.169 2.979 9.686 7.811-3.3125243.4702393-6.5605476 1.3170537-9.681 2.524-3.123425-1.2075577-6.3744605-2.0547057-9.69-2.525 2.517-4.831 5.929-7.81 9.685-7.81zm-15.7 22.143c-.3933309 3.8947613-.3933309 7.8192387 0 11.714-1.9950375-1.7652014-3.80657488-3.7275048-5.407-5.857 1.60096963-2.1290412 3.4124585-4.0912921 5.407-5.857zm-6.6 7.6c2.05101116 2.6119283 4.3923858 4.982155 6.979 7.065.5007635 3.2997172 1.3802352 6.5307101 2.621 9.629-3.806.144-6.987-.541-9.165-1.978.55750811-.6985987.86235748-1.5652168.865-2.459 0-2.209139-1.790861-4-4-4-.072 0-.139.018-.21.021.21681369-2.9683524 1.22132922-5.8251807 2.91-8.276z" fill-rule="nonzero"/></g></g></g></g></svg>