<svg id="Layer_1" viewBox="0 0 128 128" xmlns="http://www.w3.org/2000/svg" data-name="Layer 1"><path d="m45.9248 55.8501a2.0001 2.0001 0 0 0 -2-2h-16.2998a2 2 0 0 0 0 4h6.15039v14.30029a2 2 0 0 0 4 0v-14.30029h6.14941a2.0001 2.0001 0 0 0 2-2z"/><path d="m68.375 74.15039a2.0001 2.0001 0 0 0 2-2v-16.30029a2.00017 2.00017 0 0 0 -3.2666-1.54785l-6.88379 5.63184-6.88281-5.63184a2.00017 2.00017 0 0 0 -3.2666 1.54785v16.30029a2 2 0 0 0 4 0v-12.07959l4.8828 3.99512a2.001 2.001 0 0 0 2.5332 0l4.8838-3.99561v12.08008a2.0001 2.0001 0 0 0 2 2z"/><path d="m79.89252 46.35083a2.0455 2.0455 0 0 0 -.38275.13892 2.01431 2.01431 0 0 0 -.91992 2.68018 1.95561 1.95561 0 0 0 .20349.29742 17.6907 17.6907 0 0 1 1.09918-3.11652z"/><path d="m71.60938 34.23975a2.001 2.001 0 1 0 .32031 2.82031 2.0024 2.0024 0 0 0 -.32031-2.82031z"/><path d="m74.81934 39.92969a1.99106 1.99106 0 0 0 -.2998 2.81006 1.99737 1.99737 0 0 0 2.81055.31006 2.00243 2.00243 0 1 0 -2.51074-3.12012z"/><path d="m63.54 33.52979a2.00078 2.00078 0 1 0 -.87012-.2002 1.94042 1.94042 0 0 0 .87012.2002z"/><path d="m10.93945 55.58984a1.99039 1.99039 0 0 0 1.5 2.39014 1.73034 1.73034 0 0 0 .4502.0498 1.99961 1.99961 0 1 0 -1.9502-2.43994z"/><path d="m15.54 50.42969a2.00713 2.00713 0 1 0 -.86035-.19971 2.04358 2.04358 0 0 0 .86035.19971z"/><path d="m83.12988 73.88965a1.9753 1.9753 0 0 0 .584-.09338v-3.8086c-.04883-.015-.09393-.03687-.14453-.04822a2.01959 2.01959 0 0 0 -2.39941 1.51074h.00977a2.0026 2.0026 0 0 0 1.50977 2.39941 2.168 2.168 0 0 0 .4404.04005z"/><path d="m10 64.04a2 2 0 1 0 2-2 2.00575 2.00575 0 0 0 -2 2z"/><path d="m82.47089 79.29395a1.99182 1.99182 0 0 0 -1.12128-1.59375 2.01292 2.01292 0 0 0 -2.66992.93945 1.97981 1.97981 0 0 0 -.18634.71521 9.53363 9.53363 0 0 1 1.03595-.06091z"/><path d="m38.04 98.66016a2.00059 2.00059 0 0 0 1.50977 2.38965 1.699 1.699 0 0 0 .44043.0498 2.00047 2.00047 0 1 0 -1.9502-2.43945z"/><path d="m49.91992 28a1.99512 1.99512 0 1 0 -1.99023 2 1.99947 1.99947 0 0 0 1.99023-2z"/><path d="m48 102h.16016a2 2 0 0 0 -.02051-4h-.13965a2 2 0 0 0 0 4z"/><path d="m39.91992 30.90967a1.73034 1.73034 0 0 0 .4502-.0498 2.00016 2.00016 0 0 0 -.89062-3.8999h-.00977a2.00037 2.00037 0 0 0 .4502 3.94971z"/><path d="m55.92969 30.87988a2.00482 2.00482 0 1 0 -.43945-.05029 2.25573 2.25573 0 0 0 .43945.05029z"/><path d="m33.25977 94.63965a1.99954 1.99954 0 0 0 -1.74023 3.60059 2.08592 2.08592 0 0 0 .87012.19922 1.99971 1.99971 0 0 0 .87012-3.7998z"/><path d="m55.7002 97.12012a2.00011 2.00011 0 0 0 .44922 3.94922 2.27025 2.27025 0 0 0 .4502-.0498 2.0009 2.0009 0 1 0 -.89941-3.89941z"/><path d="m24.33008 93.71a1.96592 1.96592 0 0 0 1.23926.42969 2.02122 2.02122 0 0 0 1.57031-.75 1.99984 1.99984 0 1 0 -2.80957.32031z"/><path d="m19.83008 43.59961a1.99052 1.99052 0 0 0 1.56934-.75 1.99969 1.99969 0 1 0 -2.80957.32031 1.96858 1.96858 0 0 0 1.24023.42969z"/><path d="m19.87988 88.4502a1.92618 1.92618 0 0 0 1.24023-.44043 1.996 1.996 0 1 0 -2.81055-.30957 2.0272 2.0272 0 0 0 1.57032.75z"/><path d="m15.58008 81.63965a2.08725 2.08725 0 0 0 .87012-.2002 1.99642 1.99642 0 1 0 -.87012.2002z"/><path d="m26.76953 37.46a1.9962 1.9962 0 1 0 -1.25.43994 1.96878 1.96878 0 0 0 1.25-.43994z"/><path d="m12.89941 74.04a2.34528 2.34528 0 0 0 .4502-.0498 2.00029 2.00029 0 1 0 -2.39941-1.5 2.01416 2.01416 0 0 0 1.94921 1.5498z"/><path d="m32.33008 33.58984a1.94042 1.94042 0 0 0 .87012-.2002 2.002 2.002 0 1 0 -.87012.2002z"/><path d="m122 92h-4v-3.16113a5.54333 5.54333 0 0 0 -5.5293-5.54492h-4.3027a3.9 3.9 0 0 1 -3.88184-3.90918v-12.7544a3.86181 3.86181 0 0 1 1.17773-2.79248 13.76468 13.76468 0 1 0 -19.06152-.12842 4.10859 4.10859 0 0 1 1.31152 2.92871v12.74659a3.9 3.9 0 0 1 -3.88189 3.90918h-4.3027a5.54333 5.54333 0 0 0 -5.5293 5.54492v3.16113h-4a6.00656 6.00656 0 0 0 -6 6v8a2.0001 2.0001 0 0 0 2 2h60a2.0001 2.0001 0 0 0 2-2v-8a6.00656 6.00656 0 0 0 -6-6zm-44-3.16113a1.53942 1.53942 0 0 1 1.5293-1.54492h4.3027a7.90459 7.90459 0 0 0 7.88184-7.90918v-12.74659a8.07246 8.07246 0 0 0 -2.51758-5.7915 9.74808 9.74808 0 0 1 -2.96094-7.02832 9.85421 9.85421 0 0 1 3.27539-7.33691 9.66639 9.66639 0 0 1 7.60938-2.41895 9.82336 9.82336 0 0 1 5.58789 16.876 7.87867 7.87867 0 0 0 -2.42187 5.69189v12.75438a7.90459 7.90459 0 0 0 7.88184 7.90918h4.30273a1.53942 1.53942 0 0 1 1.52932 1.54492v3.16113h-36zm46 15.16113h-56v-6a2.00261 2.00261 0 0 1 2-2h52a2.00261 2.00261 0 0 1 2 2z"/><path d="m96 48a5.79836 5.79836 0 0 0 -5.76465 5.81836 2 2 0 1 0 4 0 1.79451 1.79451 0 0 1 1.76465-1.81836 2 2 0 0 0 0-4z"/><path d="m88.20746 37.83032a47.996 47.996 0 1 0 -26.63593 72.20392 5.96726 5.96726 0 0 1 -1.55505-3.70868 44.0033 44.0033 0 1 1 24.81873-66.34839 17.79161 17.79161 0 0 1 3.37225-2.14685z"/></svg>