<svg id="Layer_1" viewBox="0 0 512 512" xmlns="http://www.w3.org/2000/svg" data-name="Layer 1"><path d="m446.796 7.839h-240.056c-9.61 0-17.43 8.168-17.43 18.207v82.315c-31.534 8.513-60.062 27.051-80.876 52.685-22.528 27.745-34.936 62.617-34.936 98.191v19.968c-14.668 2.596-25.848 15.427-25.848 30.829v53.745c0 17.269 14.049 31.317 31.317 31.317h16.017c2.58 10.454 12.033 18.23 23.272 18.23 13.218 0 23.971-10.754 23.971-23.972v-104.897c0-11.634-8.332-21.354-19.341-23.519 2.089-48.607 25.894-84.638 66.423-100.777v37.284c0 10.039 7.819 18.207 17.43 18.207h15.474v64.063c0 3.159 1.859 6.022 4.745 7.308 1.045.466 2.153.692 3.253.692 1.94 0 3.855-.705 5.354-2.054l77.782-70.01h14.003c7.074 15.614 9.023 29.311 9.303 45.264-11.071 2.114-19.467 11.863-19.467 23.541v104.897c0 13.218 10.754 23.972 23.972 23.972 2.504 0 4.919-.388 7.19-1.103-2.916 36.961-15.173 54.694-54.938 54.694h-24.44c-3.479-12.067-14.615-20.921-27.787-20.921h-22.953c-15.947 0-28.921 12.974-28.921 28.921s12.974 28.922 28.921 28.922h22.953c13.172 0 24.307-8.855 27.787-20.922h24.44c63.291 0 71.112-42.495 71.677-87.821h15.36c17.269 0 31.317-14.049 31.317-31.317v-53.745c0-15.388-11.159-28.21-25.807-30.822.119-21.965.115-41.522-6.273-63.559h67.111c9.61 0 17.43-8.168 17.43-18.207v-171.399c0-10.039-7.819-18.207-17.43-18.207zm-205.612 480.001h-22.953c-7.125 0-12.921-5.797-12.921-12.922s5.796-12.921 12.921-12.921h22.953c7.125 0 12.921 5.796 12.921 12.921s-5.796 12.922-12.921 12.922zm-177.533-124.061v-53.745c0-8.446 6.871-15.317 15.317-15.317h15.317v84.38h-15.317c-8.446 0-15.317-6.871-15.317-15.317zm62.577-79.321v104.897c0 4.396-3.576 7.972-7.972 7.972s-7.971-3.576-7.971-7.972v-104.897c0-4.396 3.575-7.972 7.971-7.972 4.396 0 7.971 3.576 7.971 7.972zm2.019-94.75c-13.356 20.389-20.729 45.792-21.457 73.705-5.819 3.184-10.178 8.711-11.805 15.304h-5.487v-19.479c0-61.605 41.413-116.504 99.812-134.23v18.084c-26.129 8.968-46.659 24.629-61.063 46.616zm212.911 207.619c-4.396 0-7.971-3.576-7.971-7.972v-104.897c0-4.396 3.576-7.972 7.972-7.972s7.972 3.576 7.972 7.972v104.443h-.005c0 .195-.001.386-.001.581-.069 4.336-3.613 7.845-7.966 7.845zm54.607-87.293v53.745c0 8.446-6.871 15.317-15.317 15.317h-15.317v-84.38h15.317c8.446 0 15.317 6.871 15.317 15.317zm-25.805-31.317h-5.529c-1.622-6.57-5.957-12.082-11.747-15.271-.114-16.526-1.731-31.486-8.001-47.793h18.256c7.087 21.532 7.143 40.232 7.021 63.063zm78.265-81.271c0 1.327-.86 2.207-1.43 2.207h-136.519c-1.977 0-3.883.731-5.352 2.054l-66.712 60.046v-54.1c0-4.418-3.582-8-8-8h-23.474c-.569 0-1.43-.88-1.43-2.207v-171.4c0-1.327.86-2.207 1.43-2.207h240.056c.569 0 1.43.88 1.43 2.207v171.4zm-35.441-130.206c0 4.418-3.582 8-8 8h-157.735c-4.418 0-8-3.582-8-8s3.582-8 8-8h157.735c4.418 0 8 3.582 8 8zm0 44.506c0 4.418-3.582 8-8 8h-157.735c-4.418 0-8-3.582-8-8s3.582-8 8-8h157.735c4.418 0 8 3.582 8 8zm-108.343 44.506c0 4.418-3.582 8-8 8h-49.393c-4.418 0-8-3.582-8-8s3.582-8 8-8h49.393c4.418 0 8 3.582 8 8zm-118.26 180.655c0 4.418-3.582 8-8 8h-.656c-4.418 0-8-3.582-8-8s3.582-8 8-8h.656c4.418 0 8 3.582 8 8zm25.913 8c-4.418 0-8-3.582-8-8s3.582-8 8-8h.656c4.418 0 8 3.582 8 8s-3.582 8-8 8zm34.57 0c-4.418 0-8-3.582-8-8s3.582-8 8-8h.656c4.418 0 8 3.582 8 8s-3.582 8-8 8zm34.569-.052c-4.418 0-8-3.582-8-8s3.582-8 8-8h.656c4.418 0 8 3.582 8 8s-3.582 8-8 8z"/></svg>