<?xml version="1.0" encoding="UTF-8"?>
<svg xmlns="http://www.w3.org/2000/svg" xmlns:xlink="http://www.w3.org/1999/xlink" version="1.1" id="Layer_29" x="0px" y="0px" viewBox="0 0 512 518.4" xml:space="preserve" width="512" height="512">
<title>Artboard 69</title>
<g>
	<path d="M510.1,255.8L427.5,58.1l-79.7,33.3c1-9.4,1-22.7-4.1-32.3c-11.4-21.3-38-29.4-59.3-18s-29.4,38-18,59.3   c4,7.5,10,13.6,17.4,17.7l-85.2,35.5c-1.9-6-4.8-11.7-8.5-16.8c1.1-0.6,2-1.3,2.9-2.2c2.1-2.1,3.4-4.9,3.4-7.9l0,0l-0.4-33h6.8   c1.6,0,3.1-0.7,4.2-1.8c1.2-1.1,1.8-2.7,1.8-4.3L207.6,0l-12,0.2l1.1,81.5L36.4,82.9L35.3,0l-12,0.2l1.1,88.9   c0.1,3.3,2.7,5.8,6,5.9h7c0,0.3,0.4,33,0.4,33c0.1,3.6,1.9,6.9,4.8,9l-4.4,7c-1.7,2.7-4,9.4-4,9.4h-0.1l-17.5,65.3l4.6,14.2   l-6.5,2.9c-6,2.7-10.8,7.6-13.1,13.8s-2.1,13,0.6,19l88.9,198.6l83.3-37.3c3-1.3,5.1-4.1,5.4-7.4c0.3-3.3-1.2-6.5-3.9-8.3   c-10.7-7.5-18.1-15.6-20.3-22.2c-5.6-16.6,3.3-34.7,20-40.3c16.6-5.6,34.7,3.3,40.3,20c2.7,7.9,2.1,16.6-1.6,24.1   c-1.6,3.2-1,7,1.5,9.5c2.4,2.6,6.2,3.4,9.4,1.9l69.2-31c3.3-1.4,6.1-3.8,8.1-6.8l10.5-4.3c1.2,9.9,4.9,19.3,10.8,27.4   c-1.1,0.6-2,1.4-2.9,2.3c-2.2,2.1-3.4,5-3.4,8l0.5,32.9h-6.8c-1.6,0-3.1,0.7-4.2,1.8c-1.2,1.1-1.8,2.7-1.7,4.3l1.1,75.5h12   l-1.1-69.5l160.3-1.3l1.1,70.9h12l-1.1-76.9c-0.1-3.3-2.7-5.9-6-6h-7c0-0.2,0.1-0.5,0.1-0.7l-0.5-32.2c0-3.6-1.8-7-4.8-9   c2.3-3.7,4.1-6.5,4.4-7.1c1.7-2.6,3-5.5,3.8-8.6l0.2-0.7h0.1l17.5-65.4l-6.4-20.2l5.8-2.4c12.6-5.2,18.6-19.5,13.4-32.1   C510.2,256,510.1,255.9,510.1,255.8L510.1,255.8z M91.2,201.6l-1,1.7c-6.8,12-19.1,17.3-19.2,17.3l-4.4,1.8c0,0,6.9,41.7,8.8,53.8   c1.1,7.2-0.2,14.6-3.8,20.9c-2.6,3.7-6.8,5.9-11.3,5.9c-3.1-0.1-4.4-1.7-4.9-2.6l-19.5-60.9L32.2,228l-3.1-9.6L46,155.5   c0.5-1.8,1.3-3.5,2.3-5.1c0,0,3.1-5,6.6-10.4l0,0l121.6-1l0,0c5.2,5.5,9,12.2,11.1,19.5L91.2,201.6z M182.2,127.1H182v-0.2   l-129.7,1c-0.9,0.1-1.7-0.2-2.4-0.7V126l0,0l-0.4-30.2c0.7-0.4,1.5-0.7,2.3-0.7l129.9-1c0.9-0.1,1.7,0.2,2.4,0.7l0.5,31.6   C183.9,126.8,183,127.1,182.2,127.1L182.2,127.1z M289.5,365.2l-61.3,27.5c5.9-23.5-8.3-47.3-31.8-53.2   c-23.5-5.9-47.3,8.3-53.2,31.8c-2.1,8.1-1.7,16.7,0.9,24.6c3.4,9.9,12.5,18.7,20.8,25.1L97,451.4L13,263.7   c-1.4-3.1-1.5-6.6-0.2-9.8c1.2-3.2,3.6-5.7,6.7-7.1l5.3-2.4l19.6,61.1c3,5.7,8.8,9.4,15.3,9.5c0,0,15.6,0.3,22-11.6v-0.2   c5-8.8,6.9-19,5.3-29c-1.5-9.6-5.6-34.7-7.3-44.8c8-4.4,14.8-10.8,19.8-18.4L201,165.5c0,0,2.8-1.6,5-1.1c1.3,0.5,2.5,2,3.1,3.3   l31.4,71.8c1.3,3.3,4.6,5.3,8.1,5.1s6.5-2.6,7.6-5.9c2.7-9.1,9.3-16.4,18.1-20c15.6-7,34-0.1,41,15.5c6.5,14.4,1.2,31.3-12.4,39.4   c-8.7,4.9-23.9,3.7-30,3c-3.2-0.4-6.4,1-8.4,3.6c0,0.1-2.9,3.4-1,9.1l29.7,66.2c1.1,2.5,0.7,5.5-1,7.6   C291.6,364,290.6,364.8,289.5,365.2z M464.2,403.3L464.2,403.3l0.5,30.2c-0.7,0.5-1.5,0.8-2.4,0.7l-129.9,1   c-0.9,0.1-1.7-0.2-2.4-0.7l-0.5-31.1L464.2,403.3z M468,373.8c-0.5,1.8-1.3,3.5-2.3,5.1v0.2c0,0-3,4.9-6.5,10.3l0,0l-1.2,1.9H338.5   l-1-1l0,0c-7.7-8.2-12.3-18.9-12.9-30.2l86.6-36.1c-1.9,3.4-3.7,7-5.4,10.6l10.9,5.1c2.2-4.7,4.6-9.3,7.1-13.7   c2.5-4.4,5.9-8.2,9.8-11.4l0,0c2.9-2.4,6-4.3,9.4-5.9l4.4-1.8l-0.7-4.7c-0.1-0.1-0.4-2.3-1-5.6c-1.8-10.8-5.6-34.2-7.1-43.4   c-1.1-7.2,0.2-14.6,3.8-20.9c2.6-3.7,6.8-6,11.3-6c3.1,0.1,4.4,1.7,4.9,2.7l17.6,54.8l3.7,11.5l5,15.7L468,373.8z M499.1,270.2   c-1.3,3.1-3.8,5.6-6.9,6.9l-4.9,2.1l-17.8-55.4c-3-5.7-8.8-9.3-15.2-9.5c-15.4,0.4-22.1,11.7-22.1,11.7c-5,8.8-6.9,19-5.3,29   c1.5,9.7,5.6,34.7,7.3,44.8c-2.3,1.3-4.5,2.8-6.6,4.4l0,0l-122,51c-0.3-1.6-28.1-64.2-28.1-64.2c9.9,0.7,21.3,0.2,29.8-4.3l3.8-2.3   c4.6-3.1,8.6-7,11.7-11.6l1.3-2c2.3-3.8,4-7.9,5.1-12.2c0.1-0.2,0.1-0.4,0.1-0.6h0.1c1.1-3.9,1.6-7.9,1.6-12c0-4.4-0.7-8.9-2-13.1   c-7.2-23.1-31.8-35.9-54.9-28.7c-11.1,3.5-20.4,11.3-25.8,21.7l-7.1-15.9c-2.3-5.7-17.6-39.3-21-47.1c-0.8-1.5-1.7-3-2.8-4.3   l79.1-32.6c3.3-1.4,5.3-4.7,5.1-8.2c-0.1-3.5-2.5-6.5-5.8-7.5c-16.8-5.1-26.3-22.8-21.2-39.7c0.5-1.6,1.1-3.1,1.8-4.6   c3.9-8.2,11.1-14.4,19.9-16.8c14.4-4.1,29.7,2.3,36.8,15.5c4.7,8.8,3.1,23.9,2.2,30c-0.4,3.3,0.9,6.5,3.5,8.5s6,2.5,9,1.2L421,73.8   l78,186.6C500.4,263.5,500.4,267.1,499.1,270.2z"/>
	<rect x="129.9" y="471" transform="matrix(0.8886 -0.4586 0.4586 0.8886 -207.81 116.4499)" width="12" height="30.2"/>
	<rect x="34.2" y="480.6" transform="matrix(0.4586 -0.8886 0.8886 0.4586 -405.6845 307.2109)" width="30.2" height="12"/>
	
		<rect x="77.3" y="496.8" transform="matrix(2.443223e-02 -0.9997 0.9997 2.443223e-02 -412.5467 582.9055)" width="30.2" height="12"/>
	<rect x="383.6" y="18" transform="matrix(0.8886 -0.4586 0.4586 0.8886 28.206 182.3648)" width="12" height="30.2"/>
	<rect x="461.1" y="27.5" transform="matrix(0.4586 -0.8886 0.8886 0.4586 228.0226 441.298)" width="30.2" height="12"/>
	
		<rect x="417.3" y="10.5" transform="matrix(2.443223e-02 -0.9997 0.9997 2.443223e-02 405.3758 448.407)" width="30.2" height="12"/>
</g>
</svg>
