<svg id="Layer_1" enable-background="new 0 0 512 512" height="512" viewBox="0 0 512 512" width="512" xmlns="http://www.w3.org/2000/svg"><g><g><g><path d="m7.9 256c0-137 111.1-248.1 248.1-248.1s248.1 111.1 248.1 248.1-111.1 248.1-248.1 248.1-248.1-111.1-248.1-248.1z" fill="#f3f2f2"/></g></g><g><g><path d="m304.7 240.6c0 18-14.6 32.6-32.6 32.6s-32.6-14.6-32.6-32.6 14.6-32.6 32.6-32.6 32.6 14.6 32.6 32.6z" fill="#f26e21"/></g><g><path d="m96.3 256.2c-3.8 3.4-8.8 4.9-16.7 4.9h-3.3v-41h3.3c7.9 0 12.7 1.4 16.7 5 4.2 3.7 6.7 9.5 6.7 15.4 0 6.1-2.5 12-6.7 15.7zm-14.2-46.5h-17.9v62h17.8c9.5 0 16.3-2.2 22.3-7.2 7.1-5.9 11.3-14.7 11.3-23.8 0-18.3-13.8-31-33.5-31" fill="#0b161f"/></g><g><path d="m121.2 271.7h12.2v-62h-12.2z" fill="#0b161f"/></g><g><path d="m163.2 233.5c-7.3-2.7-9.5-4.5-9.5-7.8 0-3.9 3.8-6.9 9.1-6.9 3.6 0 6.6 1.5 9.8 5l6.4-8.3c-5.2-4.6-11.5-6.9-18.4-6.9-11 0-19.5 7.6-19.5 17.7 0 8.6 3.9 12.9 15.4 17 4.8 1.7 7.2 2.8 8.4 3.5 2.4 1.6 3.7 3.8 3.7 6.4 0 5-4 8.7-9.5 8.7-5.8 0-10.5-2.9-13.3-8.3l-7.9 7.5c5.6 8.2 12.4 11.8 21.6 11.8 12.6 0 21.5-8.4 21.5-20.4.2-9.5-3.9-14-17.8-19" fill="#0b161f"/></g><g><path d="m185 240.7c0 18.2 14.4 32.4 33 32.4 5.2 0 9.7-1 15.3-3.6v-14.2c-4.9 4.8-9.2 6.8-14.7 6.8-12.3 0-21-8.8-21-21.4 0-11.9 9-21.3 20.4-21.3 5.8 0 10.2 2 15.3 7v-14.2c-5.3-2.7-9.7-3.8-15-3.8-18.5-.1-33.3 14.3-33.3 32.3" fill="#0b161f"/></g><g><path d="m332 251.3-16.7-41.6h-13.3l26.5 63.6h6.6l27-63.6h-13.2z" fill="#0b161f"/></g><g><path d="m367.6 271.7h34.6v-10.5h-22.4v-16.8h21.5v-10.4h-21.5v-13.8h22.4v-10.5h-34.6z" fill="#0b161f"/></g><g><path d="m426 238.2h-3.5v-18.8h3.7c7.6 0 11.7 3.2 11.7 9.2 0 6.3-4.1 9.6-11.9 9.6zm24.4-10.2c0-11.6-8-18.3-22.1-18.3h-18.1v62h12.2v-24.9h1.6l16.8 24.9h15l-19.7-26.1c9.3-1.9 14.3-8.1 14.3-17.6" fill="#0b161f"/></g></g><g><g><path d="m153.1 329.3v-34.9l23.8 24.9v-22.7h4.9v34.6l-23.8-24.8v22.9z"/></g><g><path d="m207.6 301.2h-13.1v7.8h12.7v4.6h-12.7v10.9h13.1v4.6h-18v-32.6h18z"/></g><g><path d="m223.1 301.2v28h-4.9v-28h-7.5v-4.6h19.9v4.6z"/></g><g><path d="m238.5 296.6 8.5 21.8 8.9-23.4 8.5 23.4 9-21.8h5.3l-14.6 34.7-8.4-23.1-8.8 23.2-13.9-34.7h5.5z"/></g><g><path d="m279.7 312.8c0-4.6 1.7-8.5 5.1-11.8s7.4-4.9 12.1-4.9c4.6 0 8.6 1.7 12 5 3.3 3.3 5 7.3 5 12s-1.7 8.7-5 11.9c-3.4 3.3-7.4 4.9-12.2 4.9-4.2 0-8-1.5-11.4-4.4-3.7-3.3-5.6-7.5-5.6-12.7zm5 0c0 3.6 1.2 6.6 3.6 8.9s5.2 3.5 8.4 3.5c3.4 0 6.3-1.2 8.7-3.5 2.4-2.4 3.5-5.3 3.5-8.7 0-3.5-1.2-6.4-3.5-8.7-2.3-2.4-5.2-3.5-8.6-3.5s-6.3 1.2-8.6 3.5c-2.3 2.2-3.5 5.1-3.5 8.5z"/></g><g><path d="m331.1 315.3 10.1 13.9h-6l-9.3-13.4h-.9v13.4h-5v-32.6h5.8c4.3 0 7.4.8 9.3 2.4 2.1 1.8 3.2 4.2 3.2 7.1 0 2.3-.7 4.3-2 6s-3 2.8-5.2 3.2zm-6.1-3.7h1.6c4.7 0 7-1.8 7-5.3 0-3.3-2.3-5-6.8-5h-1.8z"/></g><g><path d="m351 309.6 12.7-13h6.6l-14.8 14.8 14.8 17.9h-6.6l-11.7-14.6-1 1v13.5h-4.9v-32.6h4.9z"/></g></g><g><g><path d="m503.3 274.6c-46.7 59.1-154.9 161.2-347.5 208.3 30.7 13.6 64.5 21.1 100.2 21.1 130.7.1 237.8-101.1 247.3-229.4z" fill="#f26e21"/></g></g></g></svg>