<svg id="Layer_1" viewBox="0 0 512 512" xmlns="http://www.w3.org/2000/svg" data-name="Layer 1"><path d="m472.342 175.295c9.25-7.769 15.143-19.41 15.143-32.406 0-23.334-18.983-42.317-42.317-42.317s-42.317 18.983-42.317 42.317c0 12.996 5.894 24.638 15.143 32.406-21.643 10.226-36.658 32.26-36.658 57.742v43.781c0 4.418 3.582 8 8 8h111.664c4.418 0 8-3.582 8-8v-43.781c0-25.482-15.015-47.516-36.658-57.742zm-27.174-58.724c14.512 0 26.317 11.806 26.317 26.317s-11.806 26.317-26.317 26.317-26.317-11.806-26.317-26.317 11.806-26.317 26.317-26.317zm47.832 152.247h-95.664v-35.781c0-26.374 21.458-47.831 47.832-47.831s47.832 21.457 47.832 47.831zm7.999 35.563h-489.999c-2.488 0-4.835 1.158-6.349 3.133s-2.023 4.541-1.377 6.944c13.262 49.327 40.252 92.209 76.172 124.996.045.053.084.109.131.16.398.439.836.818 1.3 1.148 46.918 42.197 108.776 67.302 175.122 67.302 66.346 0 128.204-25.106 175.122-67.303.464-.329.902-.709 1.3-1.147.047-.052.087-.109.133-.162 35.919-32.787 62.908-75.668 76.17-124.995.646-2.403.137-4.97-1.377-6.944-1.514-1.975-3.86-3.133-6.349-3.133zm-253 56.149c-33.225 1.007-65.61 8.281-95.618 21.219-6.594-18.662-11.896-39.259-15.616-61.369h111.234v40.149zm0 16.008v111.32c-35.55-4.489-68.123-38.645-89.889-91.147 28.197-12.248 58.642-19.164 89.889-20.173zm-79.382 73.219c10.746 15.393 22.473 27.651 34.917 36.628-39.375-8.623-75.617-26.76-105.827-52.185 14.239-12.007 29.673-22.274 46.002-30.67 7.195 17.244 15.564 32.842 24.907 46.227zm95.382 38.1v-111.319c31.244 1.008 61.687 7.923 89.882 20.169-21.774 52.494-54.356 86.657-89.882 91.15zm104.29-84.327c16.329 8.396 31.762 18.663 46.002 30.67-30.211 25.426-66.455 43.563-105.831 52.186 12.398-8.943 24.086-21.143 34.8-36.455 9.391-13.423 17.803-29.081 25.03-46.4zm-104.29-43v-40.149h111.237c-3.72 22.107-9.026 42.704-15.624 61.367-30.007-12.937-62.389-20.21-95.613-21.217zm-242.333-40.149h98.884c3.915 24.141 9.804 47.146 17.351 68.151-18.603 9.413-36.134 21.092-52.203 34.877-29.044-27.882-51.417-63.006-64.032-103.027zm404.633 103.027c-16.069-13.785-33.6-25.464-52.203-34.877 7.547-21.006 13.437-44.011 17.35-68.15h98.885c-12.615 40.021-34.987 75.145-64.032 103.027zm-415.299-138.589h111.664c4.418 0 8-3.582 8-8v-43.781c0-25.482-15.015-47.516-36.658-57.742 9.25-7.769 15.143-19.41 15.143-32.406 0-23.334-18.983-42.317-42.317-42.317s-42.317 18.983-42.317 42.317c0 12.996 5.894 24.638 15.143 32.406-21.643 10.226-36.657 32.26-36.657 57.742v43.781c0 4.418 3.582 8 8 8zm55.832-168.247c14.511 0 26.317 11.806 26.317 26.317s-11.806 26.317-26.317 26.317-26.317-11.806-26.317-26.317 11.806-26.317 26.317-26.317zm-47.832 116.466c0-26.374 21.457-47.831 47.832-47.831s47.832 21.457 47.832 47.831v35.781h-95.664zm165.726-27.791h142.548c4.418 0 8-3.582 8-8v-64.675c0-24.616-19.104-44.839-43.262-46.657 8.007-8.713 12.905-20.326 12.905-33.064 0-26.973-21.944-48.917-48.917-48.917s-48.917 21.944-48.917 48.917c0 12.738 4.898 24.351 12.905 33.064-24.158 1.818-43.263 22.041-43.263 46.657v64.675c0 4.418 3.582 8 8 8zm71.274-185.313c18.15 0 32.917 14.766 32.917 32.917s-14.766 32.917-32.917 32.917-32.917-14.766-32.917-32.917 14.766-32.917 32.917-32.917zm-63.274 112.638c0-16.985 13.819-30.805 30.804-30.805h64.939c16.986 0 30.805 13.819 30.805 30.805v56.675h-126.548zm71.274 91.225v26.625c0 10.145 8.253 18.397 18.398 18.397h44.876c4.418 0 8 3.582 8 8s-3.582 8-8 8h-44.876c-10.595 0-20.083-4.818-26.398-12.374-6.315 7.556-15.803 12.374-26.397 12.374h-44.876c-4.418 0-8-3.582-8-8s3.582-8 8-8h44.876c10.145 0 18.397-8.253 18.397-18.397v-26.625c0-4.418 3.582-8 8-8s8 3.582 8 8z"/></svg>