<svg id="Layer_1" enable-background="new 0 0 512 512" viewBox="0 0 512 512" xmlns="http://www.w3.org/2000/svg"><g clip-rule="evenodd" fill-rule="evenodd"><path d="m187.774 230.672c6.734 10.593 19.301 15.155 31.266 11.375l4.791-1.514c6.884-2.175 13.626-.84 19.156 3.801 5.511 4.625 8.017 11.067 7.069 18.2l-.663 4.989c-1.657 12.468 5.016 24.007 16.636 28.81l4.643 1.919c6.67 2.757 10.98 8.112 12.233 15.22 1.254 7.11-.961 13.625-6.289 18.497l-3.708 3.391c-9.261 8.468-11.58 21.634-5.777 32.759l2.327 4.461c3.337 6.397 3.193 13.282-.416 19.53-3.61 6.25-9.496 9.818-16.709 10.117l-5.017.207c-12.576.52-22.774 9.115-25.484 21.397l-1.081 4.9c-1.557 7.052-6.083 12.228-12.871 14.696-6.764 2.46-13.591 1.396-19.297-2.987l-3.984-3.061c-4.797-3.685-10.574-5.751-16.636-5.751s-11.841 2.064-16.638 5.75l-3.983 3.061c-5.706 4.385-12.535 5.447-19.3 2.987-6.788-2.468-11.311-7.643-12.869-14.694l-1.083-4.9c-2.716-12.288-12.918-20.846-25.49-21.389l-5.018-.217c-7.209-.311-13.092-3.866-16.703-10.116-3.61-6.249-3.754-13.136-.414-19.533l2.325-4.451c5.81-11.124 3.483-24.299-5.778-32.767l-3.708-3.391c-5.328-4.872-7.544-11.388-6.289-18.497 1.255-7.108 5.564-12.465 12.234-15.22l4.646-1.919c11.628-4.804 18.291-16.348 16.635-28.82l-.661-4.98c-.947-7.132 1.553-13.578 7.067-18.201 5.53-4.637 12.275-5.974 19.157-3.8l4.791 1.514c11.965 3.78 24.535-.779 31.265-11.375l2.693-4.24c3.872-6.094 9.9-9.405 17.12-9.405s13.245 3.312 17.118 9.404zm213.542-135.432c0 46.318-38.25 83.239-84.315 83.239s-84.317-36.92-84.317-83.239 38.251-83.239 84.317-83.239c46.065 0 84.315 36.921 84.315 83.239zm-233.355 162.039c-40.575 0-73.59 33.018-73.59 73.593 0 40.578 33.013 73.588 73.59 73.588 40.576 0 73.589-33.012 73.589-73.588 0-40.573-33.015-73.593-73.589-73.593zm11.163 61.547c-1.275-.119-2.385-.924-2.892-2.1l-8.271-19.18-8.271 19.18c-.507 1.175-1.616 1.981-2.89 2.1l-20.798 1.941 15.684 13.797c.962.846 1.386 2.145 1.104 3.395l-4.587 20.386 17.969-10.664c.542-.321 1.156-.492 1.786-.492.629 0 1.243.171 1.785.492l17.969 10.662-4.583-20.384c-.281-1.251.142-2.549 1.105-3.396l15.684-13.797z" fill="#a3d4f7"/><path d="m181.592 331.56c-2.061 1.811-2.968 4.598-2.365 7.276l2.548 11.332-9.99-5.928c-1.179-.703-2.503-1.052-3.826-1.052s-2.647.349-3.828 1.052l-9.988 5.928 2.549-11.332c.603-2.678-.306-5.465-2.365-7.276l-8.722-7.673 11.566-1.08c2.73-.25 5.104-1.98 6.191-4.499l4.598-10.662 4.598 10.662c1.087 2.518 3.461 4.249 6.193 4.499l11.563 1.08zm2.981-23.272-9.726-22.56c-1.184-2.749-3.892-4.527-6.885-4.527-2.995 0-5.703 1.778-6.888 4.527l-9.724 22.56-24.459 2.283c-2.98.269-5.511 2.297-6.436 5.15-.927 2.839-.068 5.97 2.179 7.951l18.448 16.218-5.392 23.961c-.657 2.919.486 5.951 2.909 7.71 2.424 1.769 5.661 1.91 8.236.387l21.125-12.539 21.127 12.539c1.184.703 2.505 1.052 3.826 1.052 1.551 0 3.1-.476 4.408-1.438 2.424-1.759 3.566-4.791 2.909-7.71l-5.392-23.961 18.45-16.218c2.248-1.981 3.106-5.112 2.181-7.951-.927-2.853-3.458-4.881-6.438-5.15zm-16.612 85.171c34.511 0 62.588-28.073 62.588-62.587 0-34.51-28.077-62.592-62.588-62.592-34.514 0-62.591 28.082-62.591 62.592 0 34.515 28.078 62.587 62.591 62.587zm0-140.18c-42.785 0-77.59 34.812-77.59 77.593 0 42.786 34.806 77.588 77.59 77.588 42.782 0 77.589-34.802 77.589-77.588 0-42.781-34.807-77.593-77.589-77.593zm287.36 102.238h-180.322c-.025-4.456 1.807-8.819 5.331-12.039l3.708-3.386c8.063-7.371 11.598-17.774 9.702-28.521-1.897-10.762-8.776-19.32-18.872-23.489l-4.644-1.91c-6.924-2.862-10.914-9.771-9.927-17.203l.662-4.98c1.44-10.827-2.533-21.06-10.902-28.078-8.367-7.022-19.138-9.163-29.551-5.862l-4.79 1.509c-6.051 1.919-12.345.24-16.575-4.15 17.359-25.257 43.877-42.791 73.737-48.657 13.2 6.847 28.21 10.728 44.122 10.728 15.914 0 30.927-3.881 44.129-10.728 54.728 10.709 94.191 58.428 94.191 114.39v62.376zm-191.735 14.453c-6.663-12.761-3.999-27.851 6.624-37.561l3.708-3.391c4.32-3.952 6.066-9.087 5.049-14.85-1.015-5.758-4.412-9.988-9.822-12.218l-4.643-1.919c-13.303-5.489-20.969-18.773-19.073-33.034l.663-4.989c.77-5.795-1.191-10.851-5.675-14.609-4.483-3.768-9.802-4.82-15.379-3.051l-4.791 1.514c-13.722 4.348-28.129-.891-35.847-13.044l-2.695-4.24c-3.139-4.937-7.89-7.55-13.742-7.55s-10.605 2.613-13.744 7.55l-2.693 4.24c-7.72 12.152-22.125 17.392-35.847 13.044l-4.791-1.514c-5.58-1.768-10.898-.707-15.382 3.051-4.482 3.758-6.444 8.814-5.672 14.609l.661 4.98c1.898 14.27-5.767 27.554-19.073 33.043l-4.646 1.919c-5.41 2.23-8.805 6.461-9.822 12.218-1.016 5.763.73 10.898 5.049 14.85l3.708 3.391c10.625 9.71 13.288 24.81 6.624 37.57l-2.325 4.451c-2.708 5.187-2.593 10.611.332 15.68 2.927 5.06 7.564 7.866 13.412 8.121l5.018.217c14.379.599 26.124 10.46 29.223 24.522l1.083 4.9c1.26 5.72 4.832 9.799 10.33 11.799 5.499 2 10.857 1.17 15.496-2.4l3.983-3.061c5.705-4.39 12.39-6.579 19.075-6.579s13.368 2.188 19.073 6.579l3.984 3.061c4.636 3.57 9.995 4.4 15.494 2.4 5.499-1.999 9.074-6.079 10.332-11.799l1.081-4.9c3.098-14.062 14.843-23.923 29.225-24.531l5.017-.208c5.847-.255 10.486-3.06 13.411-8.121 2.925-5.069 3.041-10.492.333-15.68zm-31.413 86.888c-3.585-1.198-7.498.472-9.131 3.871l-11.76 24.55-12.587-29.653c.691.052 1.381.094 2.078.094 3.616 0 7.28-.651 10.872-1.962 10.262-3.73 17.498-11.992 19.848-22.659l1.081-4.914c.772-3.499 2.581-6.489 5.069-8.696l20.355 47.959zm-107.534 28.422-11.76-24.55c-1.634-3.4-5.545-5.069-9.131-3.871l-25.828 8.592 20.357-47.959c2.489 2.207 4.298 5.197 5.069 8.696l1.081 4.914c2.353 10.667 9.586 18.929 19.851 22.659 4.281 1.561 8.663 2.169 12.946 1.868zm112.045-390.04c0-43.691 36.03-79.239 80.317-79.239 44.286 0 80.315 35.547 80.315 79.239 0 43.691-36.029 79.239-80.315 79.239-44.288 0-80.317-35.547-80.317-79.239zm202.256 112.848c-16.224-19.071-37.443-33.081-60.945-40.489 20.961-17.297 34.322-43.319 34.322-72.358 0-51.963-42.759-94.24-95.315-94.24-52.558 0-95.317 42.277-95.317 94.24 0 29.04 13.361 55.052 34.318 72.349-26.351 8.3-49.611 24.819-66.284 47.2-5.74-5.631-13.361-8.762-21.757-8.762-10.922 0-20.547 5.282-26.402 14.501l-2.695 4.24c-4.02 6.333-11.515 9.059-18.659 6.791l-4.791-1.509c-10.413-3.301-21.184-1.16-29.551 5.862-8.367 7.017-12.34 17.25-10.899 28.078l.661 4.98c.987 7.432-3.003 14.341-9.929 17.203l-4.644 1.91c-10.096 4.169-16.975 12.728-18.872 23.489-1.896 10.747 1.641 21.15 9.702 28.521l3.71 3.386c5.53 5.05 6.915 12.912 3.448 19.551l-2.326 4.461c-5.057 9.682-4.823 20.66.637 30.12 5.462 9.451 14.853 15.152 25.766 15.609l.667.033-26.162 61.625c-1.151 2.711-.606 5.852 1.393 8.012 1.999 2.169 5.083 2.971 7.879 2.042l35.317-11.752 16.08 33.562c1.249 2.608 3.883 4.258 6.763 4.258h.171c2.948-.071 5.582-1.858 6.735-4.569l25.382-59.801.693-.528c5.939-4.569 13.917-4.569 19.856 0l.69.528 25.385 59.801c1.153 2.712 3.787 4.499 6.735 4.569h.171c2.881 0 5.513-1.65 6.762-4.258l16.081-33.562 35.313 11.752c2.798.929 5.88.127 7.879-2.042 2.001-2.16 2.544-5.301 1.393-8.012l-26.161-61.625.669-.033c10.914-.457 20.305-6.159 25.766-15.609 4.898-8.493 5.576-18.189 2.019-27.092h174.993c8.127 0 14.74-6.607 14.74-14.736v-62.639c-.005-31.066-11.152-61.275-31.387-85.057z" fill="#116fff"/></g></svg>