<svg id="Capa_1" enable-background="new 0 0 512 512" height="512" viewBox="0 0 512 512" width="512" xmlns="http://www.w3.org/2000/svg"><g><path d="m351.586 165.919c0 4.142 3.358 7.5 7.5 7.5h92.737c4.142 0 7.5-3.358 7.5-7.5s-3.358-7.5-7.5-7.5h-92.737c-4.142 0-7.5 3.357-7.5 7.5zm22.443 28.425c-4.142 0-7.5 3.358-7.5 7.5s3.358 7.5 7.5 7.5h62.853c4.142 0 7.5-3.358 7.5-7.5s-3.358-7.5-7.5-7.5zm98.131-74.036c-3.533-2.165-8.15-1.053-10.313 2.478-2.164 3.532-1.054 8.15 2.478 10.313 20.765 12.719 32.675 31.229 32.675 50.782 0 36.103-40.455 66.427-91.545 66.427-10.187 0-20.199-1.217-29.759-3.616-3.791-.951-7.747.107-10.577 2.833-10.14 9.769-22.01 14.353-35.774 16.139-1.624.21-2.813-1.478-2.088-2.957 5.014-10.216 7.686-22.149 8.833-28.352.695-3.759-.555-7.583-3.345-10.23-11.335-10.748-18.835-24.559-18.835-40.245 0-35.379 39.746-66.427 91.545-66.427 9.562 0 18.983 1.072 28.003 3.187 4.038.95 8.069-1.557 9.014-5.59s-1.558-8.068-5.59-9.014c-10.14-2.377-20.713-3.582-31.427-3.582-12.551 0-24.777 1.656-36.253 4.809-33.426-22.859-72.484-34.923-113.202-34.923-19.404 0-38.17 2.775-55.932 7.934-18.519-25.867-54.472-42.304-93.523-42.304-28.062 0-54.527 8.219-74.521 23.143-20.651 15.413-32.024 36.112-32.024 58.284 0 34.671 28.579 65.235 70.557 76.678-10.199 24.437-15.402 50.57-15.402 77.11 0 66.613 32.953 129.976 90.582 167.897 3.467 2.281 8.115 1.312 10.388-2.142 2.277-3.46 1.318-8.111-2.143-10.388-33.722-22.19-58.694-54.105-72.254-90.723h65.764c13.745 45.982 41.268 87.198 82.324 119.368-15.654-2.201-30.907-6.38-45.573-12.525-3.819-1.6-8.215.199-9.815 4.02-1.601 3.82.199 8.215 4.02 9.815 24.585 10.3 50.678 15.522 77.554 15.522 110.582 0 200.845-89.945 200.845-200.845 0-5.811-.26-11.705-.775-17.589 8.653-3.565 16.704-8.055 23.906-13.43 20.649-15.413 32.022-36.112 32.022-58.284 0-24.894-14.522-48.065-39.84-63.573zm-457.16-.911c0-36.628 41.067-66.427 91.545-66.427 32.36 0 62.023 12.456 78.478 32.336-8.942 3.389-17.582 7.396-25.865 11.975-1.344-2.017-3.638-3.347-6.244-3.347h-92.738c-4.142 0-7.5 3.358-7.5 7.5s3.358 7.5 7.5 7.5h80.37c-8.926 6.293-17.315 13.298-25.092 20.925h-40.336c-4.142 0-7.5 3.358-7.5 7.5s3.358 7.5 7.5 7.5h26.501c-9.539 11.456-17.831 23.983-24.662 37.376-36.751-9.141-61.957-34.397-61.957-62.838zm128.539 203.432h-66.653c-4.408-15.956-6.731-32.625-6.731-49.644 0-17.188 2.356-33.834 6.743-49.644h66.641c-4.802 20.996-5.814 38.59-5.814 49.644s1.012 28.648 5.814 49.644zm-61.78-114.287c23.379-62.812 79.799-109.668 148.025-119.343-40.984 32.124-68.531 73.307-82.292 119.343zm166.741 243.888c-42.071-29.971-70.724-69.251-85.306-114.601h85.306zm0-129.601h-89.555c-5.166-21.07-6.221-38.758-6.221-49.644s1.054-28.574 6.221-49.644h89.555zm0-114.287h-85.306c14.571-45.317 43.208-84.608 85.306-114.6zm102.873-94.901c-10.098 4.542-19.246 10.378-27.105 17.408-12.074-15.343-26.178-29.356-42.153-41.888 24.516 3.435 47.967 11.707 69.258 24.48zm-87.873-19.685c19.585 13.971 36.474 30.109 50.373 48.144-9.755 12.468-14.963 26.786-14.963 41.781 0 8.415 1.731 16.734 5.009 24.66h-40.419zm0 129.586h48.856c2.539 3.498 5.4 6.865 8.605 10.05-1.159 5.747-3.41 14.847-7.17 22.508-5.968 12.163 3.99 26.196 17.484 24.441 10.497-1.362 19.768-4.169 27.989-8.474.105 16.934-2.224 34.508-6.21 50.763h-89.554zm0 114.287h85.306c-14.57 45.315-43.205 84.608-85.306 114.601zm18.716 119.343c40.983-32.124 68.531-73.307 82.292-119.343h65.733c-23.378 62.812-79.799 109.668-148.025 119.343zm152.886-134.343h-66.641c4.551-19.901 6.634-40.482 5.491-61.031.028-.025.057-.049.084-.074 21.899 5.136 45.719 4.753 67.361-1.134.286 4.219.448 8.431.448 12.595 0 17.188-2.356 33.835-6.743 49.644z"/></g></svg>