<?xml version="1.0" encoding="UTF-8"?>
<svg xmlns="http://www.w3.org/2000/svg" id="Icons" viewBox="0 0 60 60" width="512" height="512"><path d="M26,52a25.963,25.963,0,0,0,4.592-.418A6,6,0,0,0,36,55v2.32a2.649,2.649,0,0,0,1.572,2.44A2.686,2.686,0,0,0,38.679,60a2.641,2.641,0,0,0,1.75-.669L45.376,55H54a6.006,6.006,0,0,0,6-6V36a6.006,6.006,0,0,0-6-6H51.692A26,26,0,1,0,26,52ZM7.909,41.744A43.3,43.3,0,0,1,14.8,39.388a23.231,23.231,0,0,0,5.309,9.879A24.031,24.031,0,0,1,7.909,41.744ZM38.988,25a48.9,48.9,0,0,0-1.273-10.456,45.187,45.187,0,0,0,7.673-2.666A23.857,23.857,0,0,1,49.975,25Zm-2,0H27V15.973A48.327,48.327,0,0,0,35.729,15,46.5,46.5,0,0,1,36.988,25ZM27,13.973V2.108c3.394.7,6.4,4.941,8.2,10.958A46.378,46.378,0,0,1,27,13.973ZM25,2.108V13.973a46.378,46.378,0,0,1-8.2-.907C18.605,7.049,21.606,2.812,25,2.108Zm0,13.865V25H15.012a46.5,46.5,0,0,1,1.259-10A48.327,48.327,0,0,0,25,15.973Zm0,33.919c-3.391-.7-6.391-4.935-8.2-10.944a46.584,46.584,0,0,1,8.2-.921ZM16.275,37.016A46.5,46.5,0,0,1,15.012,27H25v9.029A48.593,48.593,0,0,0,16.275,37.016ZM13.012,25H2.025A23.857,23.857,0,0,1,6.612,11.878a45.187,45.187,0,0,0,7.673,2.666A48.9,48.9,0,0,0,13.012,25Zm0,2a48.894,48.894,0,0,0,1.274,10.457,45.091,45.091,0,0,0-7.671,2.67A23.865,23.865,0,0,1,2.025,27ZM27,49.974V38.032q1.5.032,3,.16V49a6.086,6.086,0,0,0,.037.651A24.13,24.13,0,0,1,27,49.974ZM30,36v.188c-1-.081-2-.135-3-.154V27h9.976q-.03,1.512-.146,3H36A6.006,6.006,0,0,0,30,36Zm28,0V49a4,4,0,0,1-4,4H45a1,1,0,0,0-.659.248L39.108,57.83a.644.644,0,0,1-.712.108.656.656,0,0,1-.4-.617V54a1,1,0,0,0-1-1H36a4,4,0,0,1-4-4V36a4,4,0,0,1,4-4H54A4,4,0,0,1,58,36ZM38.834,30q.114-1.489.142-3h11a23.957,23.957,0,0,1-.313,3ZM44.1,10.263a43.346,43.346,0,0,1-6.9,2.35,23.235,23.235,0,0,0-5.309-9.88A24.038,24.038,0,0,1,44.1,10.263ZM20.111,2.733a23.235,23.235,0,0,0-5.309,9.88,43.346,43.346,0,0,1-6.9-2.35A24.038,24.038,0,0,1,20.111,2.733Z"/><path d="M37,38H53a1,1,0,0,0,0-2H37a1,1,0,0,0,0,2Z"/><path d="M53,41H37a1,1,0,0,0,0,2H53a1,1,0,0,0,0-2Z"/><path d="M49,46H37a1,1,0,0,0,0,2H49a1,1,0,0,0,0-2Z"/></svg>
