<svg id="a" height="512" viewBox="0 0 64 64" width="512" xmlns="http://www.w3.org/2000/svg"><path d="m18.54783 9.4983c0-.54999-.45001-1-1-1h-3c-.54999 0-1 .45001-1 1v1h5z"/><path d="m13.04783 18.4983h6c.83002 0 1.5-.67004 1.5-1.5v-2.5h-9v2.5c0 .82996.67004 1.5 1.5 1.5z"/><path d="m5.04783 13.9983c0 4.75391 3.1084 8.99805 7.60596 10.45703l2.5459 4.07324c.18311.29199.50342.46973.84814.46973s.66504-.17773.84814-.46973l2.5459-4.07324c11.79004-4.07495 9.10657-21.22003-3.39417-21.45703-6.06531 0-10.99988 4.93457-10.99988 11zm5.5-1c0-1.21002.85999-2.22003 2-2.45001v-1.04999c0-1.10004.90002-2 2-2h3c1.10004 0 2 .89996 2 2v1.04999c1.14001.22998 2 1.23999 2 2.45001v4c0 1.38-1.12 2.5-2.5 2.5h-6c-1.38 0-2.5-1.12-2.5-2.5z"/><path d="m52.54783 20.4983c0-.54999-.45001-1-1-1h-3c-.54999 0-1 .45001-1 1v1h5z"/><path d="m45.54783 27.9983c0 .82996.67004 1.5 1.5 1.5h6c.83002 0 1.5-.67004 1.5-1.5v-2.5h-9z"/><path d="m52.59177 40.58815c-1.08447 1.85815-4.00159 1.85828-5.08643.00281 0 .00012-2.1792-3.48621-2.1792-3.48621-1.10767-.4306-2.1261-1.0083-3.04944-1.69513 1.60175 4.33716 3.7619 8.48053 2.03082 13.01868-.67004 2.23157-1.10223 4.80719-.2597 7.08997-16.1604 9.61993-37.69904-1.66833-38.90997-20.39996 7.24268-.82086 12.22833-3.66809 16.80994 3.98016 1.29364 1.96722 2.526 4.01794 4.44006 5.53986 5.03528 4.01941 11.10107.8056 10.68994-5.60022-.15967-2.41833-1.09216-4.56659-1.87994-6.75983-1.6994-4.15942-1.31067-7.7641 2.31866-10.68848 1.1842-4.34705 4.56274-7.79205 8.87555-9.05908.05597-.13037.12244-.26373.17578-.3924.11243.08374.21625.17731.32721.26276.85541-.21429 1.74231-.34277 2.65491-.37756-6.30499-5.7262-15.35175-8.15808-23.69696-6.53442 5.88782 6.51312 3.22333 17.54956-5.0835 20.61566l-2.17773 3.4834c-.55371.88379-1.50439 1.41016-2.54395 1.41016s-1.99023-.52637-2.54248-1.40723l-2.1792-3.48633c-2.39697-.93182-4.39783-2.52509-5.83508-4.52405-8.38958 18.09087 5.5343 39.72069 25.55713 39.41735 14.54407.24658 27.53131-12.08038 27.95453-26.57812-1.20135 1.1391-2.62811 2.06085-4.23322 2.68481z"/><path d="m50.04783 13.9983c-12.50769.2395-15.17816 17.38696-3.39404 21.45703l2.5459 4.07324c.18311.29199.50342.46973.84814.46973s.66504-.17773.84814-.46973l2.5459-4.07324c11.79126-4.0752 9.10504-21.22076-3.39404-21.45703zm5.5 14c0 1.38-1.12 2.5-2.5 2.5h-6c-1.38 0-2.5-1.12-2.5-2.5v-4c0-1.21002.85999-2.22003 2-2.45001v-1.04999c0-1.10004.90002-2 2-2h3c1.10004 0 2 .89996 2 2v1.04999c1.14001.22998 2 1.23999 2 2.45001z"/></svg>