<svg id="Capa_1" enable-background="new 0 0 512 512" height="512" viewBox="0 0 512 512" width="512" xmlns="http://www.w3.org/2000/svg"><path d="m368.109 431.306c16.017 0 29.047-13.03 29.047-29.046s-13.03-29.046-29.047-29.046-29.047 13.03-29.047 29.046 13.031 29.046 29.047 29.046zm0-43.093c7.745 0 14.047 6.301 14.047 14.046s-6.302 14.046-14.047 14.046-14.047-6.301-14.047-14.046 6.302-14.046 14.047-14.046z"/><path d="m471.874 38.5h-115.298c-4.143 0-7.5 3.358-7.5 7.5s3.357 7.5 7.5 7.5h115.298c4.143 0 7.5-3.358 7.5-7.5s-3.357-7.5-7.5-7.5z"/><path d="m414.226 76.213h-57.649c-4.143 0-7.5 3.358-7.5 7.5s3.357 7.5 7.5 7.5h57.649c4.143 0 7.5-3.358 7.5-7.5s-3.358-7.5-7.5-7.5z"/><path d="m485.565 0h-142.68c-14.564 0-26.414 11.849-26.414 26.414v74.422c0 14.565 11.85 26.414 26.414 26.414h3.441l.219 37.517c.073 12.708 16.146 18.313 24.068 8.284l36.185-45.8h78.767c14.564 0 26.414-11.849 26.414-26.414v-74.423c.001-14.565-11.849-26.414-26.414-26.414zm11.415 100.835c0 6.294-5.12 11.414-11.414 11.414h-79.002c-4.468 0-8.618 2.011-11.388 5.516l-33.655 42.598-.196-33.686c-.047-7.956-6.558-14.429-14.514-14.429h-3.925c-6.294 0-11.414-5.12-11.414-11.414v-74.42c0-6.293 5.12-11.414 11.414-11.414h142.68c6.294 0 11.414 5.12 11.414 11.414z"/><path d="m489.845 469.531v-124.966c0-13.275-10.8-24.075-24.075-24.075h-195.32c-10.867 0-20.07 7.238-23.054 17.145l-23.563-3.829c-2.68-.436-4.625-2.722-4.625-5.437v-25.234c19.779-16.582 32.988-28.771 39.386-51.793 10.719-.039 11.257.093 13.454-.134-1.298 25.641-20.231 49.631-20.423 49.872-2.594 3.229-2.078 7.95 1.151 10.544 3.222 2.588 7.945 2.085 10.544-1.151 27.363-34.08 23.402-65.252 23.822-66.449 4.56-4.543 7.386-10.824 7.386-17.753v-20.471c0-13.387-10.546-24.357-23.768-25.038l.012-11.423c0-37.936-28.775-69.266-65.643-73.34 2.248-4.418 3.477-9.373 3.477-14.514 0-17.643-14.354-31.997-31.997-31.997s-31.997 14.354-31.997 31.997c0 5.145 1.231 10.104 3.482 14.524-13.867 1.552-27.147 7.011-38.061 15.786-3.228 2.596-3.741 7.317-1.146 10.545 2.596 3.228 7.317 3.742 10.545 1.145 10.535-8.47 23.265-12.947 36.814-12.947h40.722c32.423 0 58.802 26.378 58.802 58.793l-.033 32.548c-.005 5.493-5.175 9.517-10.521 8.189-36.999-9.18-55.616-39.352-61.904-51.898-1.271-2.538-3.867-4.14-6.705-4.14s-5.434 1.603-6.705 4.14c-6.267 12.506-24.82 42.591-61.657 51.844-5.318 1.34-10.5-2.641-10.543-8.126l-.257-32.549c0-8.601 1.813-16.886 5.388-24.626 1.737-3.76.097-8.217-3.664-9.954-3.762-1.74-8.217-.097-9.954 3.664-4.493 9.726-6.771 20.127-6.771 30.975l.09 11.361c-13.257.642-23.845 11.627-23.845 25.041v20.471c0 13.825 11.247 25.072 25.071 25.072h13.43c6.416 23.088 18.836 33.916 36.823 49.601l.005 27.747c0 2.725-1.955 5.011-4.649 5.437l-42.608 6.728-27.037 4.27c-30.152 4.761-52.657 29.356-54.728 59.812l-4.898 72.04c-1.287 18.924 13.753 35.022 32.723 35.022h463.521c8.623 0 15.638-7.015 15.638-15.637 0-13.294-9.542-24.396-22.135-26.832zm-313.236-405.043c9.372 0 16.997 7.625 16.997 16.997 0 5.667-2.819 10.904-7.449 14.053h-19.095c-4.63-3.15-7.449-8.386-7.449-14.053-.001-9.372 7.624-16.997 16.996-16.997zm102.918 141.312v20.471c0 5.554-4.519 10.072-10.072 10.072h-8.185c.505-6.009.204-7.121.301-15.889.052-.04.108-.074.159-.114 11.514-8.997 8.564-21.779 9.014-24.519 4.946.636 8.783 4.863 8.783 9.979zm-195.765 30.543c-5.553 0-10.071-4.518-10.071-10.072v-20.471c0-5.179 3.93-9.454 8.964-10.008.462 2.717-2.651 17.7 11.496 26.168.131 7.576-.102 8.844.363 14.382h-10.752zm25.46-5.421-.046-5.842c19.754-2.585 48.525-19.395 67.433-48.523 22.735 35.023 56.848 48.33 69.958 48.75l-.006 5.638c-.659 29.222-16.938 42.512-27.771 52.48-10.999 10.122-24.683 22.715-40.899 22.938-19.424-.268-35.144-18.24-47.244-28.657-13.21-11.374-21.018-28.424-21.425-46.784zm22.487 118.021c10.031-1.584 17.311-10.103 17.309-20.255l-.003-16.428c8.379 5.175 17.945 8.983 28.793 9.104h.084s.056 0 .084 0c9.758-.109 18.479-3.202 26.231-7.588v14.594c0 10.108 7.242 18.621 17.219 20.242l24.947 4.053v13.617c-16.632 21.579-42.542 34.474-69.727 34.612-32.909-.166-62.464-18.242-77.704-46.777zm-116.646 129.051 4.898-72.04c1.593-23.429 18.906-42.351 42.102-46.013l21.321-3.367c17.007 36.029 52.96 59.116 93.262 59.32 25.961-.131 50.871-10.162 69.727-27.506v81.29c-12.91 2.854-21.911 14.714-21.398 27.322h-154.75v-45.85c0-4.142-3.358-7.5-7.5-7.5s-7.5 3.358-7.5 7.5v45.85h-22.404c-10.254 0-18.462-8.654-17.758-19.006zm481.279 19.006h-255.762c-2.323 0 .753-12.971 11.697-12.971h37.023c4.143 0 7.5-3.358 7.5-7.5s-3.357-7.5-7.5-7.5h-27.927v-124.464c0-5.004 4.072-9.075 9.076-9.075h195.32c5.004 0 9.075 4.071 9.075 9.075v124.464h-155.546c-4.143 0-7.5 3.358-7.5 7.5s3.357 7.5 7.5 7.5h165.348c10.933 0 14.02 12.971 11.696 12.971z"/></svg>