<?xml version="1.0" encoding="utf-8"?>
<!-- Generator: Adobe Illustrator 27.5.0, SVG Export Plug-In . SVG Version: 6.00 Build 0)  -->
<svg version="1.1" xmlns="http://www.w3.org/2000/svg" xmlns:xlink="http://www.w3.org/1999/xlink" x="0px" y="0px"
	 viewBox="0 0 500 500" style="enable-background:new 0 0 500 500;" xml:space="preserve">
<g id="BACKGROUND">
	<g>
		<g>
			<g>
				<rect style="fill:#FFFFFF;" width="500" height="500"/>
			</g>
		</g>
	</g>
</g>
<g id="OBJECTS">
	<g>
		<ellipse style="fill:#C7C7C7;" cx="244.322" cy="353.648" rx="213.643" ry="41.878"/>
	</g>
	<g>
		<g>
			<g>
				<path style="fill:#88C8FC;" d="M425.001,286.228c-18.493,14.67-44.125-8.011-37.995-26.569
					c3.169-9.594,10.686-17.222,12.195-27.366c1.558-10.475,6.512-14.902,14.606-21.229c3.174-2.482,4.445-7.046,5.921-10.769
					c2.788-7.027,6.954-12.942,13.655-16.712c8.26-4.647,24.516,1.621,26.541,12.034c2.458,12.637-13.94,18.618-19.307,26.734
					c-4.607,6.966-0.261,16.14-7.012,23.688C423.46,257.378,439.544,275.419,425.001,286.228z"/>
			</g>
		</g>
		<g>
			<path style="fill:#29275F;" d="M405.634,307.641c-0.384,0-0.711-0.293-0.746-0.683c-3.275-36.068,7.714-72.627,30.15-100.3
				c0.261-0.323,0.733-0.372,1.056-0.11c0.321,0.261,0.371,0.733,0.11,1.055c-22.193,27.373-33.064,63.538-29.822,99.221
				c0.037,0.412-0.267,0.776-0.68,0.814C405.68,307.64,405.656,307.641,405.634,307.641z"/>
		</g>
	</g>
	<g>
		<g>
			<path style="fill:#508DD2;" d="M416.106,262.507c-4.99,7.058-8.919,14.969-17.383,16.522
				c-12.779,2.347-28.082,14.535-27.302,30.456c-0.223,32.417,49.224,31.756,53.043,7.679c1.802-11.381,4.691-16.345,16.323-18.014
				c6.966-0.996,9.073-6.864,11.034-12.878c1.817-2.761,4.422-4.89,7.543-6.026c4.427-1.613,9.423-0.913,14.16-1.055
				c4.179-0.124,8.355-0.986,11.456-3.744c2.95-2.633,4.881-6.362,5.396-10.525c0.502-4.145-0.535-8.49-2.95-12.179
				c-2.278-3.472-5.735-6.301-9.467-7.769c-4.234-1.675-8.559-1.651-12.482-0.027c-4.542,1.87-8.068,5.263-11.59,8.57
				c-0.023,0.026-0.051,0.045-0.074,0.071c-4.53,4.273-10.995,5.8-17.401,4.199C428.771,255.88,421.492,254.9,416.106,262.507z"/>
		</g>
		<g>
			<path style="fill:#29275F;" d="M370.819,338.887c-0.13,0-0.262-0.034-0.382-0.105c-0.356-0.211-0.474-0.672-0.262-1.027
				c21.012-35.376,53.997-61.74,92.88-74.236c0.392-0.127,0.816,0.09,0.943,0.484c0.127,0.395-0.09,0.816-0.484,0.943
				c-38.534,12.384-71.225,38.514-92.05,73.574C371.325,338.756,371.075,338.887,370.819,338.887z"/>
		</g>
	</g>
	<g>
		<g>
			<g>
				<path style="fill:#508DD2;" d="M71.887,299.638c18.493,14.67,44.125-8.011,37.995-26.569
					c-3.169-9.594-10.687-17.222-12.195-27.366c-1.558-10.475-6.512-14.902-14.606-21.23c-3.174-2.482-4.444-7.046-5.921-10.769
					c-2.788-7.027-6.954-12.942-13.655-16.712c-8.26-4.647-24.516,1.62-26.541,12.034c-2.458,12.637,13.94,18.618,19.307,26.734
					c4.607,6.966,0.261,16.14,7.012,23.688C73.428,270.789,57.344,288.83,71.887,299.638z"/>
			</g>
		</g>
		<g>
			<path style="fill:#29275F;" d="M91.254,321.051c-0.023,0-0.046-0.001-0.069-0.003c-0.413-0.038-0.716-0.402-0.679-0.815
				c3.241-35.684-7.629-71.848-29.822-99.221c-0.261-0.322-0.211-0.794,0.11-1.055c0.321-0.261,0.794-0.212,1.055,0.11
				C84.286,247.742,95.276,284.3,92,320.368C91.965,320.758,91.637,321.051,91.254,321.051z"/>
		</g>
	</g>
	<g>
		<g>
			<path style="fill:#88C8FC;" d="M83.894,271.625c4.99,7.058,8.919,14.969,17.383,16.522c12.779,2.347,28.082,14.536,27.302,30.457
				c0.223,32.417-49.225,31.756-53.043,7.679c-1.802-11.38-4.691-16.345-16.323-18.014c-6.966-0.996-9.073-6.864-11.034-12.878
				c-1.817-2.761-4.422-4.89-7.543-6.026c-4.428-1.613-9.424-0.913-14.16-1.055c-4.179-0.124-8.355-0.986-11.456-3.744
				c-2.95-2.633-4.881-6.362-5.396-10.525c-0.502-4.145,0.535-8.49,2.95-12.179c2.278-3.472,5.735-6.301,9.467-7.769
				c4.234-1.675,8.559-1.651,12.482-0.027c4.542,1.87,8.068,5.263,11.59,8.57c0.023,0.026,0.051,0.045,0.074,0.071
				c4.53,4.273,10.995,5.8,17.401,4.199C71.229,264.998,78.508,264.018,83.894,271.625z"/>
		</g>
		<g>
			<path style="fill:#29275F;" d="M129.18,348.005c-0.256,0-0.505-0.131-0.645-0.367c-20.824-35.06-53.515-61.189-92.049-73.574
				c-0.395-0.127-0.611-0.549-0.484-0.943c0.126-0.395,0.549-0.61,0.943-0.484c38.883,12.496,71.869,38.86,92.88,74.236
				c0.211,0.355,0.094,0.816-0.262,1.027C129.442,347.971,129.31,348.005,129.18,348.005z"/>
		</g>
	</g>
	<g>
		<g>
			<path style="fill:#29275F;" d="M437.131,380.632H59.953c-4.208,0-7.619-3.411-7.619-7.62v-3.207h392.417v3.207
				C444.751,377.22,441.339,380.632,437.131,380.632z"/>
		</g>
		<g>
			<polygon style="fill:#FFFFFF;" points="403.811,310.061 93.273,310.061 52.334,369.806 444.751,369.806 			"/>
		</g>
		<g>
			<path style="fill:#29275F;" d="M398.466,113.087H98.619c-2.866,0-5.189,2.323-5.189,5.189v191.785h310.225V118.276
				C403.655,115.41,401.332,113.087,398.466,113.087z"/>
		</g>
		<g>
			<rect x="102.924" y="129.413" style="fill:#67A4E9;" width="291.237" height="165.368"/>
		</g>
		<g>
			<path style="fill:#29275F;" d="M437.132,381.382H59.953c-4.615,0-8.37-3.755-8.37-8.37v-3.206c0-0.414,0.336-0.75,0.75-0.75
				h392.417c0.414,0,0.75,0.336,0.75,0.75v3.206C445.501,377.627,441.747,381.382,437.132,381.382z M53.084,370.556v2.456
				c0,3.788,3.082,6.87,6.87,6.87h377.178c3.788,0,6.869-3.082,6.869-6.87v-2.456H53.084z"/>
		</g>
		<g>
			<path style="fill:#29275F;" d="M444.751,370.556H52.334c-0.278,0-0.534-0.154-0.664-0.4c-0.13-0.246-0.112-0.544,0.045-0.773
				l40.939-59.745c0.14-0.204,0.371-0.326,0.619-0.326h310.538c0.247,0,0.479,0.122,0.619,0.326l40.939,59.745
				c0.157,0.23,0.174,0.527,0.044,0.773C445.285,370.401,445.029,370.556,444.751,370.556z M53.757,369.056h389.571l-39.912-58.245
				H93.668L53.757,369.056z"/>
		</g>
		<g>
			<path style="fill:#29275F;" d="M403.655,310.811H93.43c-0.414,0-0.75-0.336-0.75-0.75V118.276c0-3.275,2.664-5.939,5.939-5.939
				h299.847c3.275,0,5.94,2.664,5.94,5.939v191.785C404.405,310.475,404.069,310.811,403.655,310.811z M94.18,309.311h308.725
				V118.276c0-2.448-1.991-4.439-4.44-4.439H98.619c-2.448,0-4.439,1.991-4.439,4.439V309.311z"/>
		</g>
		<g>
			<path style="fill:#29275F;" d="M394.161,295.53H102.924c-0.414,0-0.75-0.336-0.75-0.75V129.413c0-0.414,0.336-0.75,0.75-0.75
				h291.237c0.414,0,0.75,0.336,0.75,0.75V294.78C394.911,295.194,394.575,295.53,394.161,295.53z M103.674,294.03h289.737V130.163
				H103.674V294.03z"/>
		</g>
		<g>
			<rect x="168.755" y="301.627" style="fill:#FFFFFF;" width="159.575" height="7.249"/>
		</g>
		<g>
			<path style="fill:#67A4E9;" d="M235.013,121.069c0,2.7-2.189,4.888-4.888,4.888c-2.7,0-4.888-2.188-4.888-4.888
				c0-2.7,2.188-4.888,4.888-4.888C232.824,116.181,235.013,118.369,235.013,121.069z"/>
		</g>
		<g>
			<path style="fill:#29275F;" d="M304.812,365.725h-112.54c-0.278,0-0.534-0.154-0.664-0.4c-0.13-0.246-0.112-0.544,0.045-0.773
				l11.741-17.134c0.14-0.204,0.371-0.326,0.619-0.326h89.059c0.247,0,0.479,0.122,0.619,0.326l11.74,17.134
				c0.157,0.229,0.174,0.527,0.044,0.773C305.346,365.57,305.091,365.725,304.812,365.725z M193.696,364.225h109.694l-10.713-15.634
				h-88.268L193.696,364.225z"/>
		</g>
		<g>
			<g>
				<g>
					<path style="fill:#29275F;" d="M133.974,326.076H113.22c-0.266,0-0.513-0.142-0.647-0.371
						c-0.134-0.229-0.137-0.514-0.006-0.746l5.325-9.479c0.133-0.236,0.383-0.383,0.654-0.383h19.939
						c0.257,0,0.496,0.132,0.634,0.35c0.137,0.218,0.153,0.49,0.043,0.723l-4.511,9.479
						C134.527,325.91,134.264,326.076,133.974,326.076z M114.502,324.576h18.999l3.797-7.979h-18.313L114.502,324.576z"/>
				</g>
				<g>
					<path style="fill:#29275F;" d="M169.807,326.076h-20.754c-0.251,0-0.484-0.125-0.624-0.333
						c-0.139-0.208-0.165-0.472-0.07-0.703l3.92-9.479c0.116-0.281,0.39-0.464,0.693-0.464h19.94c0.24,0,0.466,0.115,0.607,0.31
						c0.141,0.195,0.18,0.445,0.105,0.674l-3.106,9.479C170.419,325.868,170.132,326.076,169.807,326.076z M150.175,324.576h19.089
						l2.614-7.979h-18.403L150.175,324.576z"/>
				</g>
				<g>
					<path style="fill:#29275F;" d="M205.64,326.076h-20.754c-0.233,0-0.453-0.108-0.594-0.293
						c-0.142-0.185-0.191-0.425-0.131-0.649l2.515-9.48c0.087-0.329,0.385-0.558,0.725-0.558h19.94c0.222,0,0.433,0.099,0.575,0.269
						c0.143,0.171,0.202,0.396,0.163,0.614l-1.701,9.479C206.314,325.817,206.004,326.076,205.64,326.076z M185.862,324.576h19.151
						l1.432-7.979h-18.466L185.862,324.576z"/>
				</g>
				<g>
					<path style="fill:#29275F;" d="M241.473,326.076h-20.754c-0.214,0-0.418-0.092-0.561-0.252
						c-0.142-0.159-0.21-0.373-0.185-0.586l1.11-9.479c0.044-0.378,0.365-0.663,0.745-0.663h19.94c0.203,0,0.398,0.082,0.539,0.228
						c0.141,0.146,0.217,0.342,0.211,0.545l-0.296,9.479C242.211,325.755,241.879,326.076,241.473,326.076z M221.562,324.576h19.185
						l0.249-7.979h-18.499L221.562,324.576z"/>
				</g>
				<g>
					<path style="fill:#29275F;" d="M277.306,326.076h-20.754c-0.405,0-0.737-0.322-0.75-0.727l-0.296-9.479
						c-0.006-0.203,0.07-0.4,0.212-0.546c0.141-0.146,0.335-0.228,0.538-0.228h19.94c0.381,0,0.701,0.285,0.745,0.663l1.109,9.48
						c0.024,0.213-0.043,0.426-0.185,0.586C277.724,325.984,277.52,326.076,277.306,326.076z M257.279,324.576h19.185l-0.934-7.979
						h-18.5L257.279,324.576z"/>
				</g>
				<g>
					<path style="fill:#29275F;" d="M313.139,326.076h-20.754c-0.363,0-0.675-0.261-0.738-0.618l-1.701-9.479
						c-0.039-0.219,0.02-0.443,0.163-0.614c0.143-0.17,0.354-0.269,0.575-0.269h19.94c0.34,0,0.638,0.229,0.725,0.558l2.515,9.48
						c0.059,0.226,0.012,0.466-0.13,0.649C313.592,325.968,313.372,326.076,313.139,326.076z M293.013,324.576h19.151l-2.117-7.979
						h-18.467L293.013,324.576z"/>
				</g>
				<g>
					<path style="fill:#29275F;" d="M348.973,326.076h-20.754c-0.324,0-0.612-0.209-0.713-0.517l-3.106-9.479
						c-0.074-0.228-0.035-0.478,0.106-0.674c0.142-0.194,0.367-0.31,0.607-0.31h19.939c0.304,0,0.577,0.183,0.693,0.464l3.92,9.479
						c0.096,0.231,0.069,0.495-0.07,0.703C349.457,325.951,349.223,326.076,348.973,326.076z M328.762,324.576h19.088l-3.299-7.979
						h-18.403L328.762,324.576z"/>
				</g>
				<g>
					<path style="fill:#29275F;" d="M384.805,326.076h-20.754c-0.29,0-0.554-0.167-0.678-0.429l-4.511-9.479
						c-0.11-0.232-0.094-0.506,0.044-0.723c0.137-0.218,0.377-0.35,0.634-0.35h19.939c0.272,0,0.522,0.146,0.654,0.383l5.325,9.479
						c0.13,0.232,0.128,0.517-0.007,0.746C385.318,325.935,385.072,326.076,384.805,326.076z M364.525,324.576h18.999l-4.482-7.979
						h-18.313L364.525,324.576z"/>
				</g>
			</g>
		</g>
		<g>
			<g>
				<g>
					<path style="fill:#29275F;" d="M111.515,339.374H90.761c-0.266,0-0.513-0.142-0.647-0.371c-0.134-0.23-0.137-0.514-0.006-0.746
						l5.325-9.479c0.133-0.236,0.383-0.383,0.654-0.383h19.94c0.257,0,0.496,0.132,0.634,0.35c0.137,0.218,0.153,0.49,0.043,0.723
						l-4.511,9.48C112.068,339.207,111.804,339.374,111.515,339.374z M92.043,337.874h18.998l3.797-7.979H96.525L92.043,337.874z"/>
				</g>
				<g>
					<path style="fill:#29275F;" d="M147.348,339.374h-20.753c-0.251,0-0.484-0.125-0.624-0.333
						c-0.139-0.208-0.165-0.472-0.07-0.703l3.919-9.48c0.116-0.281,0.39-0.464,0.693-0.464h19.94c0.24,0,0.466,0.115,0.607,0.309
						c0.141,0.195,0.18,0.445,0.105,0.674l-3.106,9.479C147.96,339.166,147.672,339.374,147.348,339.374z M127.716,337.874h19.088
						l2.614-7.979h-18.403L127.716,337.874z"/>
				</g>
				<g>
					<path style="fill:#29275F;" d="M183.181,339.374h-20.754c-0.233,0-0.453-0.108-0.594-0.293
						c-0.142-0.185-0.19-0.425-0.131-0.649l2.515-9.479c0.087-0.329,0.385-0.558,0.725-0.558h19.939
						c0.222,0,0.433,0.099,0.575,0.268c0.143,0.171,0.202,0.395,0.163,0.614l-1.701,9.479
						C183.855,339.114,183.544,339.374,183.181,339.374z M163.403,337.874h19.151l1.432-7.979h-18.466L163.403,337.874z"/>
				</g>
				<g>
					<path style="fill:#29275F;" d="M219.014,339.374H198.26c-0.214,0-0.418-0.092-0.561-0.252c-0.142-0.159-0.21-0.373-0.185-0.585
						l1.109-9.479c0.044-0.378,0.365-0.663,0.745-0.663h19.939c0.203,0,0.397,0.082,0.539,0.227
						c0.141,0.147,0.217,0.343,0.211,0.546l-0.295,9.48C219.751,339.053,219.419,339.374,219.014,339.374z M199.103,337.874h19.184
						l0.249-7.979h-18.499L199.103,337.874z"/>
				</g>
				<g>
					<path style="fill:#29275F;" d="M254.846,339.374h-20.753c-0.405,0-0.737-0.322-0.75-0.727l-0.295-9.48
						c-0.006-0.203,0.07-0.399,0.211-0.546c0.141-0.145,0.335-0.227,0.539-0.227h19.939c0.381,0,0.7,0.285,0.745,0.663l1.109,9.479
						c0.024,0.213-0.043,0.426-0.185,0.586C255.264,339.282,255.06,339.374,254.846,339.374z M234.82,337.874h19.184l-0.934-7.979
						h-18.499L234.82,337.874z"/>
				</g>
				<g>
					<path style="fill:#29275F;" d="M290.68,339.374h-20.753c-0.363,0-0.674-0.261-0.738-0.618l-1.701-9.479
						c-0.039-0.219,0.021-0.443,0.163-0.614c0.143-0.17,0.353-0.268,0.575-0.268h19.94c0.34,0,0.638,0.229,0.725,0.558l2.514,9.48
						c0.06,0.225,0.012,0.465-0.13,0.649C291.132,339.266,290.912,339.374,290.68,339.374z M270.553,337.874h19.151l-2.116-7.979
						h-18.467L270.553,337.874z"/>
				</g>
				<g>
					<path style="fill:#29275F;" d="M326.512,339.374H305.76c-0.324,0-0.612-0.209-0.713-0.517l-3.107-9.479
						c-0.074-0.229-0.035-0.479,0.105-0.674c0.142-0.194,0.367-0.309,0.607-0.309h19.94c0.304,0,0.577,0.183,0.693,0.464l3.919,9.48
						c0.096,0.231,0.069,0.495-0.07,0.703C326.997,339.249,326.762,339.374,326.512,339.374z M306.303,337.874h19.088l-3.299-7.979
						h-18.404L306.303,337.874z"/>
				</g>
				<g>
					<path style="fill:#29275F;" d="M362.345,339.374h-20.753c-0.289,0-0.553-0.167-0.678-0.428l-4.512-9.48
						c-0.11-0.232-0.094-0.505,0.044-0.723c0.137-0.218,0.377-0.35,0.634-0.35h19.94c0.271,0,0.521,0.146,0.654,0.383l5.324,9.479
						c0.13,0.232,0.127,0.517-0.007,0.746C362.858,339.233,362.612,339.374,362.345,339.374z M342.066,337.874h18.998l-4.482-7.979
						h-18.314L342.066,337.874z"/>
				</g>
				<g>
					<path style="fill:#29275F;" d="M397.437,339.374h-20.753c-0.289,0-0.553-0.167-0.678-0.428l-4.512-9.48
						c-0.11-0.232-0.094-0.505,0.044-0.723c0.137-0.218,0.377-0.35,0.634-0.35h19.939c0.271,0,0.521,0.146,0.654,0.383l5.325,9.479
						c0.13,0.232,0.128,0.517-0.007,0.746C397.95,339.233,397.704,339.374,397.437,339.374z M377.158,337.874h18.998l-4.482-7.979
						H373.36L377.158,337.874z"/>
				</g>
			</g>
		</g>
	</g>
	<g>
		<g>
			<g>
				<path style="fill:#FFFFFF;" d="M333.993,100.285v161.054c0,9.583-7.771,17.354-17.354,17.354H180.446
					c-9.583,0-17.354-7.771-17.354-17.354V100.285c0-9.583,7.771-17.354,17.354-17.354h136.192
					C326.221,82.931,333.993,90.702,333.993,100.285z"/>
			</g>
			<g>
				<path style="fill:#88C8FC;" d="M281.041,92.688c0,2.37-1.922,4.292-4.292,4.292c-2.37,0-4.292-1.922-4.292-4.292
					c0-2.37,1.922-4.292,4.292-4.292C279.119,88.397,281.041,90.318,281.041,92.688z"/>
			</g>
			<g>
				<path style="fill:#508DD2;" d="M299.9,92.688c0,2.37-1.922,4.292-4.292,4.292c-2.37,0-4.292-1.922-4.292-4.292
					c0-2.37,1.922-4.292,4.292-4.292C297.978,88.397,299.9,90.318,299.9,92.688z"/>
			</g>
			<g>
				<path style="fill:#29275F;" d="M318.759,92.688c0,2.37-1.922,4.292-4.292,4.292s-4.292-1.922-4.292-4.292
					c0-2.37,1.921-4.292,4.292-4.292S318.759,90.318,318.759,92.688z"/>
			</g>
			<g>
				<path style="fill:#29275F;" d="M316.638,279.444H180.447c-9.983,0-18.104-8.122-18.104-18.105V100.285
					c0-9.982,8.122-18.104,18.104-18.104h136.192c9.982,0,18.104,8.122,18.104,18.104v161.054
					C334.743,271.321,326.621,279.444,316.638,279.444z M180.447,83.681c-9.156,0-16.604,7.449-16.604,16.604v161.054
					c0,9.155,7.449,16.605,16.604,16.605h136.192c9.155,0,16.604-7.449,16.604-16.605V100.285c0-9.155-7.449-16.604-16.604-16.604
					H180.447z"/>
			</g>
			<g>
				<path style="fill:#29275F;" d="M333.993,101.035H163.092c-0.414,0-0.75-0.336-0.75-0.75c0-0.414,0.336-0.75,0.75-0.75h170.901
					c0.414,0,0.75,0.336,0.75,0.75C334.743,100.699,334.407,101.035,333.993,101.035z"/>
			</g>
		</g>
		<g>
			<polygon style="fill:#508DD2;" points="222.006,122.17 203.444,114.31 184.883,122.17 184.883,78.4 222.006,78.4 			"/>
		</g>
		<g>
			<g>
				<g>
					<rect x="175.819" y="132.457" style="fill:#88C8FC;" width="43.055" height="46.499"/>
				</g>
			</g>
			<g>
				<g>
					<rect x="224.817" y="132.457" style="fill:#C7C7C7;" width="96.449" height="3.951"/>
				</g>
				<g>
					<rect x="224.817" y="143.036" style="fill:#C7C7C7;" width="96.449" height="3.951"/>
				</g>
				<g>
					<rect x="224.817" y="153.614" style="fill:#C7C7C7;" width="96.449" height="3.951"/>
				</g>
				<g>
					<rect x="224.817" y="164.192" style="fill:#C7C7C7;" width="96.449" height="3.951"/>
				</g>
				<g>
					<rect x="224.817" y="174.771" style="fill:#C7C7C7;" width="55.741" height="3.951"/>
				</g>
				<g>
					<g>
						<rect x="175.819" y="195.312" style="fill:#C7C7C7;" width="145.447" height="3.951"/>
					</g>
					<g>
						<rect x="175.819" y="205.89" style="fill:#C7C7C7;" width="145.447" height="3.951"/>
					</g>
					<g>
						<rect x="175.819" y="216.469" style="fill:#C7C7C7;" width="145.447" height="3.951"/>
					</g>
					<g>
						<rect x="175.819" y="227.047" style="fill:#C7C7C7;" width="145.447" height="3.951"/>
					</g>
					<g>
						<rect x="175.819" y="237.626" style="fill:#C7C7C7;" width="104.739" height="3.951"/>
					</g>
				</g>
			</g>
			<g>
				<rect x="253.705" y="113.087" style="fill:#88C8FC;" width="66.966" height="11.042"/>
			</g>
			<g>
				<path style="fill:#29275F;" d="M252.687,268.636c-0.11,0-0.221-0.024-0.323-0.073l-15.322-7.308
					c-0.374-0.178-0.533-0.626-0.354-1c0.178-0.373,0.627-0.531,0.999-0.354l15,7.153l15-7.153c0.376-0.181,0.821-0.02,1,0.354
					c0.179,0.374,0.02,0.822-0.353,1l-15.323,7.308C252.908,268.612,252.798,268.636,252.687,268.636z"/>
			</g>
		</g>
	</g>
	<g>
		<g>
			<path style="fill:#FFFFFF;" d="M463.438,444.332h-88.905l-24.057-90.684c0,0-24.459-25.835-36.092-44.323
				c-11.645-18.5-16.15-24.641-17.15-30.678c-0.883-5.401-7.231-44.595-8.582-52.943c-0.156-0.896,0.13-1.818,0.753-2.467
				c0.104-0.13,0.221-0.234,0.363-0.337c2.804-2.116,9.633-4.933,17.397,8.465c8.945,15.436,10.243,34.923,10.438,39.454
				l3.168,5.349l8.659,14.605l10.828,18.254c0,0,11.516-2.129,19.396-11.503l-10.815-18.254l-8.659-14.605l-3.401-5.751
				l-0.039-0.052l-23.265-32.729c0,0-11.451-4.959-22.733-10.282c-11.282-5.323-14.891-23.823-6.673-22.564
				c3.116,0.48,9.997,2.999,17.332,5.946c11.944,4.778,25.069,10.659,25.069,10.659c5.141-4.687,13.892-1.986,13.892-1.986
				s6.141-3.246,12.281-2.35c6.128,0.909,34.196,27.341,38.61,36.092c4.427,8.75,14.8,91.073,14.8,91.073L463.438,444.332z"/>
		</g>
		<g>
			<path style="fill:#AFD4EF;" d="M295.842,200.03c-0.19,1.422-0.593,3.082-1.47,4.445c-0.96,1.493-2.868,2.05-4.504,1.375
				l-7.954-3.271c-1.541-0.64-2.465-2.216-2.276-3.864c0.154-1.316,0.522-2.845,1.351-4.101c0.924-1.41,2.702-1.968,4.291-1.41
				l8.108,2.833C295.048,196.617,296.067,198.288,295.842,200.03z"/>
		</g>
		<g>
			<path style="fill:#AFD4EF;" d="M299.164,237.463c-2.116,1.726-5.414,1.828-7.16,1.746c-0.688-0.031-1.253-0.544-1.366-1.222
				l-1.859-11.485c-0.082-0.534,0.133-1.068,0.555-1.397c2.219-1.716,4.91-1.716,6.225-1.582c0.514,0.051,0.966,0.349,1.192,0.822
				c1.428,3.072,2.578,9.554,2.938,11.752C299.77,236.621,299.565,237.135,299.164,237.463z"/>
		</g>
		<g>
			<path style="fill:#E6AC4B;" d="M340.181,264.666c-7.893,9.373-19.409,11.503-19.409,11.503l-3.168-5.349
				c-0.195-4.531-1.493-24.018-10.438-39.454c-7.764-13.398-14.592-10.581-17.397-8.465c-0.143,0.104-0.26,0.208-0.363,0.337
				l-23.291-39.324c0.389,0.571,1.415,2.025,2.752,3.324l0.221,0.221c0.376,0.35,0.766,0.688,1.181,0.974
				c0.117,0.104,0.247,0.182,0.376,0.273c0.234,0.156,0.467,0.299,0.714,0.415c0.169,0.091,0.338,0.169,0.506,0.234
				c0.169,0.065,0.337,0.13,0.519,0.182c0.156,0.039,0.325,0.078,0.493,0.104c0,0,0.013,0,0.026,0
				c0.169,0.026,0.337,0.039,0.506,0.039c0.545,0,1.103-0.143,1.636-0.454c2.09-1.233,2.519-3.635,2.441-5.673
				c0-0.065,0-0.13-0.013-0.195c-0.013-0.377-0.039-0.727-0.091-1.052c0-0.065-0.013-0.117-0.013-0.169
				c-0.026-0.156-0.052-0.299-0.065-0.428c-0.013-0.013-0.013-0.026-0.013-0.026c-0.143-0.87-0.338-1.48-0.364-1.597
				c0.026,0.026,0.078,0.078,0.143,0.156c0.039,0.039,0.078,0.078,0.117,0.13c0.052,0.052,0.104,0.117,0.156,0.169
				c0.195,0.195,0.441,0.428,0.727,0.688c0.117,0.13,0.247,0.234,0.377,0.338c0.156,0.13,0.311,0.273,0.48,0.389
				c0.039,0.039,0.091,0.078,0.13,0.104c0.195,0.156,0.389,0.299,0.597,0.428c0.052,0.039,0.104,0.078,0.156,0.117
				c0.338,0.208,0.701,0.415,1.065,0.584c0.195,0.091,0.376,0.182,0.571,0.247c0.195,0.078,0.389,0.13,0.584,0.182
				c0.182,0.065,0.376,0.104,0.571,0.117c0.532,0.078,1.052,0.065,1.571-0.078c0.156-0.039,0.311-0.091,0.467-0.156
				s0.325-0.156,0.48-0.247c0.428-0.26,0.753-0.597,1-1.013c0.065-0.091,0.117-0.182,0.169-0.286c0-0.013,0-0.013,0-0.013
				c0.091-0.195,0.169-0.389,0.234-0.597c0.026-0.052,0.039-0.091,0.039-0.143c0.065-0.169,0.104-0.35,0.13-0.532
				c0.039-0.208,0.065-0.415,0.078-0.623c0.013-0.026,0.013-0.065,0.013-0.104c0.039-0.441,0.039-0.896,0.013-1.376
				c-0.013-0.182-0.026-0.364-0.039-0.532c-0.052-0.584-0.13-1.168-0.247-1.727c-0.026-0.195-0.065-0.376-0.117-0.558
				c-0.052-0.26-0.104-0.519-0.169-0.766c-0.065-0.26-0.13-0.506-0.195-0.74c-0.299-1.078-0.584-1.857-0.662-2.051l16.034,27.043
				c-7.335-2.947-14.216-5.466-17.332-5.946c-8.218-1.259-4.609,17.241,6.673,22.564c11.282,5.323,22.733,10.282,22.733,10.282
				l23.265,32.729l0.039,0.052L340.181,264.666z"/>
		</g>
		<g>
			<path style="fill:#C7C7C7;" d="M348.841,279.271c-7.893,9.386-19.409,11.503-19.409,11.503l-8.659-14.605
				c0,0,11.516-2.129,19.409-11.503L348.841,279.271z"/>
		</g>
		<g>
			<path style="fill:#FFFFFF;" d="M359.655,297.525c-7.881,9.373-19.396,11.503-19.396,11.503l-10.828-18.254
				c0,0,11.516-2.116,19.409-11.503L359.655,297.525z"/>
		</g>
		<g>
			<path style="fill:#FFFFFF;" d="M286.797,178.565c0.026,0.48,0.026,0.935-0.013,1.376c0,0.039,0,0.078-0.013,0.104
				c-0.013,0.208-0.039,0.415-0.078,0.623c-0.013,0.052-0.026,0.117-0.039,0.169c-0.013,0.065-0.013,0.117-0.039,0.169
				c-0.013,0.065-0.026,0.13-0.052,0.195c-0.013,0.052-0.026,0.091-0.039,0.143c-0.065,0.208-0.143,0.402-0.234,0.597
				c0,0,0,0,0,0.013c-0.052,0.104-0.104,0.195-0.169,0.286c-0.247,0.415-0.571,0.753-1,1.013c-0.156,0.091-0.325,0.182-0.48,0.247
				s-0.311,0.117-0.467,0.156c-0.519,0.143-1.039,0.156-1.571,0.078c-0.182-0.026-0.376-0.065-0.571-0.117
				c-0.195-0.052-0.389-0.104-0.584-0.182c-0.195-0.065-0.376-0.156-0.571-0.247c-0.363-0.169-0.727-0.376-1.065-0.584
				c-0.052-0.039-0.104-0.078-0.156-0.117c-0.208-0.13-0.402-0.273-0.597-0.428c-0.039-0.026-0.091-0.065-0.13-0.104
				c-0.169-0.117-0.324-0.26-0.48-0.389c-0.13-0.104-0.26-0.221-0.377-0.338c-0.286-0.26-0.532-0.493-0.727-0.688
				c-0.052-0.065-0.104-0.13-0.156-0.169c-0.039-0.052-0.078-0.091-0.117-0.13c-0.065-0.078-0.117-0.13-0.143-0.156
				c0.026,0.117,0.221,0.727,0.364,1.597c0,0,0,0.013,0.013,0.026c0.013,0.13,0.039,0.273,0.065,0.428
				c0,0.052,0.013,0.104,0.013,0.169c0.052,0.325,0.078,0.675,0.091,1.052c0.013,0.065,0.013,0.13,0.013,0.195
				c0.078,2.038-0.35,4.44-2.441,5.673c-0.532,0.312-1.091,0.454-1.636,0.454c-0.169,0-0.338-0.013-0.506-0.039
				c-0.013,0-0.026,0-0.026,0c-0.169-0.026-0.338-0.065-0.493-0.104c-0.182-0.052-0.35-0.117-0.519-0.182
				c-0.169-0.065-0.338-0.143-0.506-0.234c-0.247-0.117-0.48-0.26-0.714-0.415c-0.13-0.091-0.26-0.169-0.376-0.273
				c-0.415-0.286-0.805-0.623-1.181-0.974l-0.221-0.221c-1.337-1.298-2.363-2.752-2.752-3.324c-0.104-0.169-0.169-0.26-0.169-0.26
				l-3.765-19.331c2.129-1.155,5.271-3.285,6.751-6.335l16.423,14.164c0,0,0,0.013,0.013,0.039c0.078,0.195,0.364,0.974,0.662,2.051
				c0.065,0.234,0.13,0.48,0.195,0.74c0.065,0.247,0.117,0.506,0.169,0.766c0.052,0.182,0.091,0.363,0.117,0.558
				c0.117,0.558,0.195,1.143,0.247,1.727C286.771,178.214,286.784,178.396,286.797,178.565z"/>
		</g>
		<g>
			<path style="fill:#29275F;" d="M268.933,157.988c-1.48,3.051-4.622,5.18-6.751,6.335l-1.337-6.881l3.116-3.752L268.933,157.988z"
				/>
		</g>
		<g>
			<path style="fill:#29275F;" d="M374.532,445.082c-0.331,0-0.635-0.222-0.724-0.558l-24.008-90.5
				c-1.957-2.08-24.952-26.661-36.051-44.299c-2.023-3.214-3.831-6.056-5.442-8.588c-7.753-12.185-10.962-17.228-11.813-22.368
				c-0.883-5.401-7.231-44.597-8.582-52.945c-0.194-1.118,0.161-2.282,0.952-3.105c0.098-0.126,0.259-0.276,0.465-0.426
				c1.528-1.153,4.028-2.405,7.19-1.765c3.934,0.795,7.734,4.315,11.295,10.461c8.751,15.102,10.271,33.898,10.53,39.609
				l22.282,37.58c2.24-0.53,11.448-3.098,18.108-10.734l-22.602-38.148l-23.148-32.558c-1.552-0.674-12.192-5.315-22.563-10.208
				c-8.767-4.136-12.851-15.478-11.221-20.813c0.73-2.388,2.549-3.545,4.98-3.17c2.784,0.429,8.671,2.445,17.498,5.991
				c10.607,4.243,22.278,9.415,24.659,10.476c4.925-4.063,12.352-2.343,13.947-1.909c1.294-0.633,6.823-3.115,12.465-2.29
				c6.828,1.013,34.897,28.023,39.172,36.496c4.388,8.672,14.24,86.287,14.858,91.186l57.322,111.494
				c0.189,0.368,0.044,0.82-0.324,1.01c-0.367,0.19-0.82,0.044-1.01-0.324l-57.383-111.611c-0.04-0.078-0.066-0.162-0.077-0.249
				c-0.103-0.822-10.407-82.293-14.726-90.828c-4.44-8.803-32.179-34.818-38.052-35.689c-5.833-0.848-11.762,2.241-11.82,2.271
				c-0.177,0.093-0.381,0.112-0.571,0.054c-0.084-0.026-8.408-2.514-13.166,1.824c-0.22,0.2-0.539,0.253-0.812,0.13
				c-0.131-0.059-13.248-5.93-25.041-10.647c-8.6-3.455-14.535-5.495-17.168-5.901c-1.691-0.26-2.809,0.455-3.318,2.126
				c-1.486,4.867,2.593,15.323,10.427,19.019c11.141,5.256,22.596,10.222,22.71,10.272c0.126,0.054,0.234,0.142,0.313,0.253
				l23.265,32.729c0.012,0.018,0.063,0.087,0.073,0.105l22.875,38.61c0.162,0.273,0.134,0.62-0.071,0.864
				c-7.962,9.471-19.352,11.669-19.833,11.758c-0.314,0.061-0.622-0.084-0.782-0.354l-22.655-38.209
				c-0.063-0.105-0.099-0.227-0.104-0.35c-0.232-5.389-1.66-24.134-10.338-39.11c-3.336-5.758-6.8-9.036-10.295-9.743
				c-2.612-0.529-4.707,0.524-6,1.501c-0.11,0.08-0.177,0.14-0.233,0.21c-0.504,0.529-0.711,1.209-0.597,1.868
				c1.352,8.356,7.7,47.549,8.583,52.95c0.8,4.836,3.961,9.804,11.598,21.807c1.612,2.533,3.422,5.377,5.446,8.594
				c11.46,18.211,35.758,43.948,36.002,44.206c0.086,0.091,0.147,0.202,0.18,0.323l24.057,90.684c0.107,0.4-0.132,0.811-0.532,0.917
				C374.661,445.074,374.596,445.082,374.532,445.082z"/>
		</g>
		<g>
			<path style="fill:#29275F;" d="M329.431,291.524c-0.262,0-0.509-0.137-0.646-0.367l-11.827-19.955
				c-0.063-0.106-0.099-0.227-0.104-0.35c-0.232-5.389-1.66-24.134-10.338-39.11c-3.336-5.758-6.8-9.036-10.295-9.743
				c-2.612-0.529-4.707,0.524-6,1.501c-0.11,0.08-0.177,0.14-0.233,0.21c-0.155,0.191-0.397,0.295-0.638,0.277
				c-0.245-0.018-0.467-0.154-0.592-0.366l-23.29-39.324c-0.206-0.349-0.099-0.798,0.243-1.015c0.344-0.219,0.795-0.124,1.022,0.211
				c0.472,0.693,1.443,2.032,2.654,3.208l0.229,0.229c0.409,0.381,0.747,0.66,1.076,0.886c0.134,0.112,0.199,0.153,0.265,0.196
				l0.116,0.08c0.189,0.126,0.392,0.251,0.605,0.353c0.174,0.093,0.315,0.158,0.455,0.212c0.147,0.057,0.296,0.115,0.455,0.161
				c0.102,0.025,0.231,0.056,0.363,0.078c0.023,0.002,0.046,0.004,0.064,0.006c0.569,0.086,1.132-0.019,1.65-0.322
				c1.467-0.865,2.164-2.547,2.07-4.997c-0.008-0.039-0.012-0.159-0.014-0.198c-0.011-0.343-0.034-0.663-0.081-0.959
				c-0.007-0.039-0.01-0.079-0.01-0.118c-0.004-0.03-0.007-0.058-0.009-0.084c-0.024-0.144-0.042-0.25-0.055-0.343
				c-0.007-0.025-0.013-0.05-0.017-0.075l-0.001,0.001c-0.106-0.647-0.243-1.143-0.31-1.381c-0.023-0.085-0.039-0.146-0.046-0.177
				c-0.071-0.327,0.082-0.661,0.376-0.82c0.293-0.157,0.657-0.104,0.892,0.135c0.04,0.041,0.103,0.105,0.183,0.2
				c0.015,0.012,0.046,0.044,0.083,0.088c0.083,0.077,0.146,0.157,0.201,0.225c0.131,0.125,0.369,0.351,0.645,0.601
				c0.142,0.151,0.242,0.228,0.341,0.307l0.143,0.12c0.096,0.082,0.192,0.166,0.295,0.237c0.038,0.026,0.072,0.055,0.104,0.087
				c0.24,0.186,0.411,0.313,0.594,0.426l0.211,0.155c0.319,0.192,0.643,0.37,0.928,0.502l0.096,0.044
				c0.133,0.063,0.261,0.126,0.396,0.17c0.204,0.081,0.366,0.122,0.526,0.166c0.186,0.063,0.314,0.088,0.443,0.097
				c0.518,0.073,0.932,0.055,1.321-0.053c0.138-0.034,0.258-0.075,0.377-0.124c0.128-0.053,0.265-0.128,0.391-0.202
				c0.301-0.182,0.544-0.429,0.734-0.748c0.053-0.078,0.085-0.13,0.111-0.178c0.007-0.019,0.015-0.037,0.022-0.054
				c0.076-0.164,0.143-0.328,0.197-0.503c0.005-0.017,0.05-0.177,0.057-0.193c0.007-0.039,0.022-0.097,0.039-0.151
				c0.005-0.029,0.013-0.078,0.014-0.084c0.002-0.007,0.022-0.096,0.023-0.103c0.001-0.004,0.022-0.096,0.023-0.101
				c0.025-0.138,0.047-0.316,0.059-0.494c0.002-0.039,0.008-0.078,0.017-0.115c0.031-0.429,0.032-0.824,0.008-1.274l-0.038-0.517
				c-0.052-0.59-0.131-1.142-0.232-1.63c-0.03-0.21-0.063-0.358-0.104-0.505c-0.063-0.303-0.11-0.547-0.172-0.78
				c-0.066-0.264-0.13-0.504-0.192-0.732c-0.284-1.025-0.561-1.786-0.636-1.972c-0.146-0.364,0.013-0.778,0.364-0.952
				c0.353-0.175,0.777-0.046,0.978,0.291l16.033,27.042c0.163,0.276,0.133,0.627-0.076,0.871c-0.21,0.243-0.552,0.327-0.849,0.208
				c-8.599-3.454-14.534-5.495-17.167-5.9c-1.691-0.26-2.809,0.455-3.318,2.126c-1.486,4.867,2.593,15.323,10.427,19.019
				c11.141,5.256,22.596,10.222,22.71,10.271c0.126,0.055,0.234,0.143,0.313,0.254l23.265,32.729
				c0.012,0.018,0.063,0.087,0.073,0.105l12.06,20.355c0.162,0.275,0.134,0.621-0.071,0.865
				c-7.975,9.484-19.367,11.67-19.848,11.758C329.521,291.52,329.476,291.524,329.431,291.524z M318.345,270.599l11.455,19.326
				c2.24-0.527,11.449-3.087,18.121-10.734l-11.787-19.895l-23.148-32.558c-1.552-0.674-12.192-5.315-22.563-10.208
				c-8.767-4.136-12.851-15.478-11.221-20.813c0.73-2.388,2.549-3.545,4.98-3.17c2.563,0.395,7.756,2.135,15.45,5.175L287.408,177.1
				c0.037,0.274,0.07,0.566,0.097,0.867l0.04,0.542c0.031,0.563,0.026,1.048-0.014,1.498c0.002,0.01,0.003,0.076-0.018,0.167
				c-0.017,0.211-0.044,0.422-0.083,0.632c-0.002,0.009-0.023,0.105-0.025,0.113c-0.02,0.105-0.035,0.201-0.068,0.299
				c-0.016,0.07-0.034,0.14-0.059,0.21c-0.006,0.023-0.013,0.047-0.014,0.052c-0.089,0.293-0.171,0.505-0.263,0.709
				c-0.011,0.034-0.025,0.067-0.039,0.098c-0.07,0.141-0.143,0.263-0.23,0.386c-0.285,0.485-0.696,0.901-1.223,1.22
				c-0.194,0.114-0.396,0.22-0.581,0.297c-0.19,0.08-0.383,0.144-0.574,0.191c-0.574,0.158-1.189,0.189-1.86,0.092
				c-0.212-0.012-0.472-0.066-0.716-0.153c-0.175-0.044-0.394-0.105-0.61-0.192c-0.149-0.048-0.332-0.132-0.521-0.222
				c-0.43-0.2-0.792-0.398-1.228-0.666l-0.21-0.154c-0.183-0.111-0.402-0.271-0.619-0.445c-0.015-0.007-0.074-0.052-0.135-0.106
				c-0.108-0.078-0.213-0.164-0.316-0.251c0.042,0.293,0.068,0.615,0.083,0.999c0.012,0.088,0.015,0.177,0.015,0.266
				c0.114,2.972-0.857,5.167-2.81,6.319c-0.806,0.472-1.698,0.645-2.593,0.518c-0.025-0.002-0.051-0.004-0.069-0.007
				c-0.193-0.029-0.386-0.073-0.562-0.118c-0.227-0.064-0.416-0.136-0.606-0.209c-0.197-0.076-0.395-0.167-0.593-0.273
				c-0.214-0.101-0.463-0.245-0.773-0.452l-0.061-0.042l19.431,32.808c1.543-1.092,3.938-2.17,6.919-1.567
				c3.934,0.795,7.734,4.315,11.295,10.461C316.566,246.091,318.086,264.887,318.345,270.599z"/>
		</g>
		<g>
			<path style="fill:#29275F;" d="M340.26,309.777c-0.262,0-0.509-0.137-0.645-0.367l-10.828-18.254
				c-0.125-0.211-0.139-0.47-0.037-0.693c0.102-0.223,0.306-0.383,0.547-0.427c0.112-0.021,11.353-2.189,18.971-11.248
				c0.157-0.186,0.391-0.286,0.636-0.265c0.242,0.02,0.46,0.155,0.584,0.365l10.815,18.254c0.162,0.273,0.134,0.62-0.071,0.864
				c-7.962,9.471-19.352,11.669-19.833,11.758C340.35,309.774,340.305,309.777,340.26,309.777z M330.603,291.279l10.024,16.9
				c2.241-0.53,11.448-3.098,18.108-10.734l-10.012-16.897C342.125,287.886,333.555,290.546,330.603,291.279z"/>
		</g>
		<g>
			<path style="fill:#29275F;" d="M273.412,190.428c-0.192,0-0.385-0.013-0.576-0.04c-0.025-0.002-0.051-0.004-0.069-0.007
				c-0.193-0.029-0.386-0.073-0.562-0.118c-0.227-0.064-0.416-0.136-0.606-0.209c-0.197-0.076-0.395-0.167-0.593-0.273
				c-0.214-0.101-0.463-0.245-0.773-0.452l-0.108-0.074c-0.123-0.083-0.242-0.165-0.353-0.264c-0.317-0.211-0.708-0.532-1.193-0.984
				l-0.239-0.239c-1.298-1.26-2.338-2.692-2.842-3.432c-0.102-0.163-0.156-0.241-0.162-0.25c-0.061-0.086-0.103-0.185-0.123-0.288
				l-5.103-26.212c-0.043-0.221,0.016-0.449,0.159-0.622l3.116-3.752c0.129-0.155,0.314-0.252,0.516-0.269
				c0.201-0.01,0.399,0.049,0.552,0.18l21.395,18.461c0.116,0.1,0.197,0.232,0.235,0.378c0.142,0.362,0.404,1.109,0.673,2.08
				c0.066,0.24,0.134,0.493,0.199,0.759c0.066,0.251,0.122,0.525,0.177,0.801c0.048,0.157,0.094,0.373,0.125,0.604
				c0.104,0.494,0.191,1.105,0.25,1.762l0.04,0.542c0,0.005,0.001,0.01,0.001,0.015c0.03,0.548,0.025,1.033-0.015,1.483
				c0.002,0.01,0.003,0.076-0.018,0.167c-0.017,0.211-0.044,0.422-0.083,0.632c-0.002,0.009-0.023,0.105-0.025,0.113
				c-0.02,0.105-0.035,0.201-0.068,0.299c-0.016,0.07-0.034,0.14-0.059,0.21c-0.006,0.023-0.013,0.047-0.014,0.052
				c-0.089,0.293-0.171,0.505-0.263,0.709c-0.011,0.034-0.025,0.066-0.039,0.097c-0.07,0.141-0.143,0.263-0.23,0.386
				c-0.285,0.485-0.696,0.901-1.223,1.22c-0.194,0.114-0.396,0.22-0.581,0.297c-0.19,0.08-0.383,0.144-0.574,0.191
				c-0.574,0.158-1.189,0.189-1.86,0.092c-0.206-0.029-0.431-0.074-0.655-0.134c-0.235-0.064-0.454-0.124-0.671-0.211
				c-0.149-0.048-0.332-0.132-0.521-0.222c-0.43-0.2-0.792-0.398-1.228-0.666l-0.21-0.154c-0.183-0.111-0.402-0.271-0.619-0.445
				c-0.015-0.007-0.074-0.052-0.135-0.106c-0.108-0.078-0.213-0.164-0.316-0.251c0.042,0.293,0.068,0.615,0.083,0.999
				c0.012,0.088,0.015,0.177,0.015,0.266c0.114,2.972-0.857,5.167-2.81,6.319C274.796,190.24,274.117,190.428,273.412,190.428z
				 M272.955,188.892c0.023,0.002,0.046,0.004,0.064,0.006c0.569,0.086,1.132-0.019,1.65-0.322c1.467-0.865,2.164-2.547,2.07-4.997
				c-0.008-0.039-0.012-0.159-0.014-0.198c-0.011-0.343-0.034-0.663-0.081-0.959c-0.007-0.039-0.01-0.079-0.01-0.118
				c-0.004-0.03-0.007-0.058-0.009-0.084c-0.024-0.144-0.042-0.25-0.055-0.343c-0.007-0.025-0.013-0.05-0.017-0.075l-0.001,0.001
				c-0.106-0.647-0.243-1.143-0.31-1.381c-0.023-0.085-0.039-0.146-0.046-0.177c-0.071-0.327,0.082-0.661,0.376-0.82
				c0.293-0.157,0.657-0.104,0.892,0.135c0.04,0.041,0.103,0.105,0.183,0.2c0.015,0.012,0.046,0.044,0.083,0.088
				c0.083,0.077,0.146,0.157,0.201,0.225c0.131,0.125,0.369,0.351,0.645,0.601c0.123,0.123,0.232,0.22,0.341,0.307l0.143,0.12
				c0.096,0.082,0.192,0.166,0.295,0.237c0.038,0.026,0.072,0.055,0.104,0.087c0.24,0.186,0.411,0.313,0.594,0.426l0.211,0.155
				c0.319,0.192,0.643,0.37,0.928,0.502l0.096,0.044c0.133,0.063,0.261,0.126,0.396,0.17c0.204,0.081,0.366,0.122,0.526,0.166
				c0.18,0.047,0.344,0.081,0.498,0.102c0.467,0.067,0.88,0.048,1.267-0.059c0.138-0.034,0.258-0.075,0.377-0.124
				c0.128-0.053,0.265-0.128,0.391-0.202c0.301-0.182,0.544-0.429,0.734-0.748c0.053-0.078,0.085-0.13,0.111-0.178
				c0.007-0.019,0.015-0.037,0.022-0.054c0.076-0.164,0.143-0.328,0.197-0.503c0.005-0.017,0.05-0.177,0.057-0.193
				c0.007-0.039,0.022-0.097,0.039-0.151c0.005-0.029,0.013-0.078,0.014-0.084c0.002-0.007,0.022-0.096,0.023-0.103
				c0.001-0.004,0.022-0.096,0.023-0.101c0.025-0.138,0.047-0.316,0.059-0.494c0.002-0.039,0.008-0.078,0.017-0.115
				c0.03-0.427,0.032-0.82,0.009-1.268l-0.039-0.524c-0.052-0.59-0.131-1.142-0.232-1.63c-0.03-0.21-0.063-0.358-0.104-0.505
				c-0.063-0.303-0.11-0.547-0.172-0.78c-0.066-0.264-0.13-0.504-0.192-0.732c-0.241-0.868-0.477-1.547-0.588-1.847l-20.672-17.837
				l-2.4,2.891l5.006,25.714c0.028,0.042,0.062,0.095,0.1,0.156c0.454,0.667,1.426,2.005,2.637,3.181l0.229,0.229
				c0.409,0.381,0.747,0.66,1.076,0.886c0.134,0.112,0.199,0.153,0.265,0.196l0.116,0.08c0.189,0.126,0.392,0.251,0.605,0.353
				c0.174,0.093,0.315,0.158,0.455,0.212c0.147,0.057,0.296,0.115,0.455,0.161C272.693,188.839,272.823,188.87,272.955,188.892z"/>
		</g>
		<g>
			<path style="fill:#29275F;" d="M284.071,194.037c-0.276,0-0.541-0.152-0.673-0.416L277.4,181.56
				c-0.185-0.371-0.033-0.821,0.338-1.005c0.375-0.187,0.821-0.033,1.006,0.337l5.998,12.061c0.185,0.371,0.033,0.821-0.338,1.005
				C284.297,194.012,284.182,194.037,284.071,194.037z"/>
		</g>
		<g>
			<path style="fill:#29275F;" d="M332.183,272.237c-0.252,0-0.498-0.126-0.64-0.356l-14.911-24.182
				c-0.217-0.353-0.107-0.814,0.245-1.032c0.354-0.217,0.815-0.107,1.032,0.245l14.911,24.182c0.217,0.353,0.107,0.814-0.245,1.032
				C332.453,272.201,332.317,272.237,332.183,272.237z"/>
		</g>
		<g>
			<path style="fill:#29275F;" d="M359.655,248.056c-0.207,0-0.413-0.085-0.562-0.252L325.91,210.39
				c-0.275-0.31-0.246-0.784,0.063-1.059c0.311-0.275,0.783-0.247,1.06,0.063l33.184,37.413c0.274,0.311,0.246,0.784-0.064,1.059
				C360.01,247.993,359.832,248.056,359.655,248.056z"/>
		</g>
		<g>
			<path style="fill:#29275F;" d="M371.516,236.988c-0.181,0-0.361-0.064-0.505-0.195l-31.153-28.333
				c-0.307-0.278-0.329-0.753-0.05-1.059c0.277-0.308,0.754-0.33,1.06-0.05l31.153,28.333c0.307,0.278,0.329,0.753,0.05,1.06
				C371.924,236.905,371.72,236.988,371.516,236.988z"/>
		</g>
		<g>
			<path style="fill:#29275F;" d="M350.475,354.399c-0.347,0-0.659-0.242-0.733-0.596c-0.085-0.405,0.175-0.803,0.58-0.889
				c0.091-0.019,9.145-1.932,14.556-4.05c0.387-0.15,0.821,0.039,0.972,0.425c0.151,0.386-0.039,0.821-0.425,0.972
				c-5.528,2.164-14.418,4.043-14.794,4.122C350.579,354.394,350.527,354.399,350.475,354.399z"/>
		</g>
	</g>
	<g>
		<g>
			<g>
				<circle style="fill:#AFD4EF;" cx="114.349" cy="139.861" r="3.414"/>
			</g>
		</g>
		<g>
			<g>
				<path style="fill:#AFD4EF;" d="M130.841,143.275c-1.885,0-3.414-1.528-3.414-3.414c0-1.885,1.528-3.414,3.414-3.414
					c1.886,0,3.414,1.529,3.414,3.414C134.255,141.746,132.726,143.275,130.841,143.275z"/>
			</g>
		</g>
		<g>
			<g>
				<circle style="fill:#AFD4EF;" cx="114.349" cy="156.353" r="3.414"/>
			</g>
		</g>
		<g>
			<g>
				<circle style="fill:#AFD4EF;" cx="114.349" cy="172.845" r="3.414"/>
			</g>
		</g>
		<g>
			<g>
				<circle style="fill:#AFD4EF;" cx="114.349" cy="189.337" r="3.414"/>
			</g>
		</g>
		<g>
			<g>
				<path style="fill:#AFD4EF;" d="M110.935,205.829c0-1.886,1.528-3.414,3.414-3.414c1.885,0,3.414,1.528,3.414,3.414
					c0,1.885-1.529,3.414-3.414,3.414C112.463,209.243,110.935,207.714,110.935,205.829z"/>
			</g>
		</g>
		<g>
			<g>
				<path style="fill:#AFD4EF;" d="M130.841,159.767c-1.885,0-3.414-1.528-3.414-3.414c0-1.886,1.528-3.414,3.414-3.414
					c1.886,0,3.414,1.528,3.414,3.414C134.255,158.238,132.726,159.767,130.841,159.767z"/>
			</g>
		</g>
		<g>
			<g>
				<path style="fill:#AFD4EF;" d="M127.427,172.845c0-1.885,1.528-3.414,3.414-3.414c1.886,0,3.414,1.529,3.414,3.414
					s-1.529,3.414-3.414,3.414C128.955,176.259,127.427,174.73,127.427,172.845z"/>
			</g>
		</g>
		<g>
			<g>
				<path style="fill:#AFD4EF;" d="M127.427,189.337c0-1.885,1.528-3.414,3.414-3.414c1.886,0,3.414,1.528,3.414,3.414
					c0,1.886-1.529,3.414-3.414,3.414C128.955,192.751,127.427,191.222,127.427,189.337z"/>
			</g>
		</g>
		<g>
			<g>
				<path style="fill:#AFD4EF;" d="M127.427,205.829c0-1.886,1.528-3.414,3.414-3.414c1.886,0,3.414,1.528,3.414,3.414
					c0,1.885-1.529,3.414-3.414,3.414C128.955,209.243,127.427,207.714,127.427,205.829z"/>
			</g>
		</g>
		<g>
			<g>
				<circle style="fill:#AFD4EF;" cx="114.349" cy="222.32" r="3.414"/>
			</g>
		</g>
		<g>
			<g>
				<path style="fill:#AFD4EF;" d="M127.427,222.32c0-1.885,1.528-3.414,3.414-3.414c1.886,0,3.414,1.529,3.414,3.414
					s-1.529,3.414-3.414,3.414C128.955,225.734,127.427,224.206,127.427,222.32z"/>
			</g>
		</g>
	</g>
	<g>
		<g>
			<g>
				<path style="fill:#AFD4EF;" d="M366.81,143.438c-1.885,0-3.414-1.529-3.414-3.414c0-1.885,1.529-3.414,3.414-3.414
					s3.414,1.529,3.414,3.414C370.224,141.909,368.696,143.438,366.81,143.438z"/>
			</g>
		</g>
		<g>
			<g>
				<path style="fill:#AFD4EF;" d="M383.302,143.438c-1.885,0-3.414-1.529-3.414-3.414c0-1.885,1.529-3.414,3.414-3.414
					s3.414,1.529,3.414,3.414C386.716,141.909,385.188,143.438,383.302,143.438z"/>
			</g>
		</g>
		<g>
			<g>
				<circle style="fill:#AFD4EF;" cx="366.81" cy="156.516" r="3.414"/>
			</g>
		</g>
		<g>
			<g>
				<circle style="fill:#AFD4EF;" cx="366.81" cy="173.007" r="3.414"/>
			</g>
		</g>
		<g>
			<g>
				<circle style="fill:#AFD4EF;" cx="366.81" cy="189.499" r="3.414"/>
			</g>
		</g>
		<g>
			<g>
				<circle style="fill:#AFD4EF;" cx="383.302" cy="156.516" r="3.414"/>
			</g>
		</g>
		<g>
			<g>
				<circle style="fill:#AFD4EF;" cx="383.302" cy="173.007" r="3.414"/>
			</g>
		</g>
		<g>
			<g>
				<circle style="fill:#AFD4EF;" cx="383.302" cy="189.499" r="3.414"/>
			</g>
		</g>
		<g>
			<g>
				<circle style="fill:#AFD4EF;" cx="349.78" cy="139.454" r="3.414"/>
			</g>
		</g>
		<g>
			<g>
				<circle style="fill:#AFD4EF;" cx="349.78" cy="155.947" r="3.414"/>
			</g>
		</g>
		<g>
			<g>
				<circle style="fill:#AFD4EF;" cx="349.78" cy="172.438" r="3.414"/>
			</g>
		</g>
		<g>
			<g>
				<path style="fill:#AFD4EF;" d="M346.366,188.93c0-1.885,1.529-3.414,3.414-3.414s3.414,1.529,3.414,3.414
					c0,1.886-1.529,3.414-3.414,3.414S346.366,190.816,346.366,188.93z"/>
			</g>
		</g>
	</g>
	<g>
		<g>
			<path style="fill:#AFD4EF;" d="M368.82,70.134c0,1.052-0.851,1.903-1.902,1.903h-4.959v4.959c0,1.052-0.851,1.903-1.902,1.903
				c-0.526,0-1-0.214-1.347-0.556c-0.342-0.346-0.556-0.821-0.556-1.347v-4.959h-4.959c-1.052,0-1.903-0.851-1.903-1.903
				c0-0.526,0.214-1,0.556-1.347c0.346-0.342,0.821-0.556,1.347-0.556h4.959v-4.959c0-1.052,0.851-1.903,1.902-1.903
				c0.526,0,1,0.214,1.347,0.556c0.342,0.346,0.556,0.821,0.556,1.347v4.959h4.959C367.97,68.232,368.82,69.083,368.82,70.134z"/>
		</g>
		<g>
			<path style="fill:#AFD4EF;" d="M364.771,91.494c-3.305,0-3.31,5.136,0,5.136C368.076,96.631,368.081,91.494,364.771,91.494z"/>
		</g>
		<g>
			<path style="fill:#AFD4EF;" d="M388.342,70.653c-3.305,0-3.31,5.136,0,5.136C391.647,75.789,391.652,70.653,388.342,70.653z"/>
		</g>
	</g>
	<g>
		<g>
			<path style="fill:#AFD4EF;" d="M448.474,154.042c0,1.052-0.851,1.902-1.902,1.902h-4.959v4.959c0,1.052-0.851,1.902-1.902,1.902
				c-0.526,0-1-0.214-1.347-0.556c-0.342-0.346-0.556-0.821-0.556-1.347v-4.959h-4.959c-1.052,0-1.903-0.851-1.903-1.902
				c0-0.526,0.214-1,0.556-1.347c0.346-0.342,0.821-0.556,1.347-0.556h4.959v-4.959c0-1.052,0.851-1.902,1.902-1.902
				c0.526,0,1,0.214,1.347,0.556c0.342,0.346,0.556,0.821,0.556,1.347v4.959h4.959C447.623,152.14,448.474,152.991,448.474,154.042z
				"/>
		</g>
		<g>
			<path style="fill:#AFD4EF;" d="M420.34,169.458c-3.305,0-3.311,5.136,0,5.136C423.645,174.595,423.65,169.458,420.34,169.458z"/>
		</g>
		<g>
			<path style="fill:#AFD4EF;" d="M423.127,131.865c-3.305,0-3.31,5.136,0,5.136C426.432,137.001,426.437,131.865,423.127,131.865z"
				/>
		</g>
	</g>
	<g>
		<g>
			<path style="fill:#AFD4EF;" d="M143.019,92.688c0,1.052-0.851,1.903-1.902,1.903h-4.959v4.959c0,1.052-0.851,1.903-1.902,1.903
				c-0.526,0-1-0.214-1.347-0.556c-0.342-0.346-0.556-0.821-0.556-1.347v-4.959h-4.959c-1.052,0-1.903-0.851-1.903-1.903
				c0-0.526,0.214-1,0.556-1.347c0.346-0.342,0.821-0.556,1.347-0.556h4.959v-4.959c0-1.052,0.851-1.902,1.903-1.902
				c0.526,0,1,0.214,1.347,0.556c0.342,0.346,0.556,0.821,0.556,1.347v4.959h4.959C142.168,90.786,143.019,91.637,143.019,92.688z"
				/>
		</g>
		<g>
			<path style="fill:#AFD4EF;" d="M112.037,86.354c-3.305,0-3.31,5.136,0,5.136C115.342,91.491,115.348,86.354,112.037,86.354z"/>
		</g>
		<g>
			<path style="fill:#AFD4EF;" d="M148.02,68.363c-3.305,0-3.311,5.136,0,5.136C151.325,73.499,151.33,68.363,148.02,68.363z"/>
		</g>
	</g>
	<g>
		<g>
			<path style="fill:#AFD4EF;" d="M64.917,173.63c0,1.052-0.851,1.902-1.902,1.902h-4.959v4.959c0,1.052-0.851,1.902-1.903,1.902
				c-0.526,0-1-0.214-1.347-0.556c-0.342-0.346-0.556-0.821-0.556-1.347v-4.959h-4.959c-1.052,0-1.903-0.851-1.903-1.902
				c0-0.526,0.214-1,0.556-1.347c0.346-0.342,0.821-0.556,1.347-0.556h4.959v-4.959c0-1.052,0.851-1.902,1.903-1.902
				c0.526,0,1,0.214,1.347,0.556c0.342,0.346,0.556,0.821,0.556,1.347v4.959h4.959C64.067,171.727,64.917,172.578,64.917,173.63z"/>
		</g>
		<g>
			<path style="fill:#AFD4EF;" d="M33.219,167.743c-3.305,0-3.311,5.136,0,5.136C36.524,172.879,36.529,167.743,33.219,167.743z"/>
		</g>
	</g>
</g>
</svg>
