<svg id="Layer_1" enable-background="new 0 0 512 512" viewBox="0 0 512 512" xmlns="http://www.w3.org/2000/svg"><path d="m303.605 169.912c-11.797-11.796-30.988-11.796-42.785 0l-55.349 55.349-16.89-16.89c-5.697-5.697-13.294-8.834-21.393-8.834-8.098 0-15.695 3.138-21.392 8.834h-.001c-11.795 11.795-11.795 30.988 0 42.783l34.613 34.612c7.987 7.988 17.301 12.041 26.203 12.041 7.543 0 14.792-2.911 20.687-8.806l76.306-76.306c11.796-11.795 11.796-30.988.001-42.783zm-11.314 31.471-76.306 76.306c-10.218 10.218-22.854-1.828-24.262-3.235l-34.612-34.612c-5.558-5.557-5.558-14.599 0-20.156h-.001c2.676-2.675 6.255-4.148 10.08-4.148 3.824 0 7.403 1.473 10.077 4.147l22.547 22.547c3.125 3.125 8.189 3.125 11.314 0l61.006-61.005c2.674-2.675 6.254-4.147 10.078-4.147s7.403 1.473 10.079 4.148c2.674 2.675 4.147 6.253 4.147 10.078.001 3.822-1.472 7.402-4.147 10.077zm193.95 99.189h-61.554v-12.381c0-6.165-1.982-11.872-5.334-16.531l16.922-6.513c3.088-1.188 5.126-4.156 5.126-7.466v-56.489c0-3.31-2.038-6.277-5.127-7.466l-30.697-11.815c-4.298-16.399-10.802-32.088-19.379-46.749l13.36-30.08c1.343-3.025.686-6.564-1.654-8.904l-39.944-39.945c-2.341-2.34-5.878-2.998-8.904-1.655l-30.093 13.365c-14.659-8.575-30.345-15.078-46.733-19.375l-11.82-30.707c-1.188-3.088-4.156-5.126-7.466-5.126h-56.487c-3.31 0-6.277 2.038-7.466 5.126l-11.82 30.707c-16.389 4.297-32.074 10.8-46.733 19.375l-30.093-13.365c-3.022-1.342-6.562-.685-8.904 1.655l-39.944 39.944c-2.34 2.34-2.997 5.879-1.654 8.904l13.363 30.088c-8.576 14.659-15.079 30.344-19.377 46.738l-30.703 11.819c-3.088 1.19-5.126 4.157-5.126 7.467v56.488c0 3.31 2.038 6.277 5.126 7.466l30.699 11.816c4.299 16.401 10.803 32.09 19.378 46.748l-13.36 30.081c-1.343 3.024-.686 6.564 1.654 8.904l39.944 39.944c2.343 2.341 5.88 2.999 8.904 1.654l30.092-13.365c14.659 8.575 30.346 15.079 46.734 19.375l11.819 30.707c1.188 3.088 4.156 5.126 7.466 5.126h42.914v26.084c0 14.912 12.132 27.044 27.044 27.044h198.941c14.912 0 27.045-12.132 27.045-27.044v-82.018c7.693-7.352 11.599-15.894 11.599-25.448v-46.425c.001-9.792-7.966-17.758-17.758-17.758zm1.759 17.758v46.425c0 5.84-2.757 10.823-8.674 15.681-1.492 1.225-3.22 2.46-5.132 3.67-13.092 8.283-42.227 14.396-78.658 16.602-4.749-11.721-16.245-20.014-29.649-20.014-13.41 0-24.912 8.3-29.656 20.029-36.383-2.189-65.516-8.307-78.651-16.617-1.906-1.207-3.634-2.442-5.132-3.671-5.918-4.858-8.674-9.841-8.674-15.68v-46.425c0-.953.805-1.758 1.758-1.758h44.41v23.731c0 11.157 9.077 20.234 20.234 20.234h111.422c11.157 0 20.234-9.077 20.234-20.234v-23.731h44.409c.953 0 1.759.805 1.759 1.758zm-106.132 94.347c0 8.812-7.169 15.981-15.981 15.981s-15.982-7.169-15.982-15.981 7.17-15.982 15.982-15.982 15.981 7.169 15.981 15.982zm-154.095-94.347v29.177c-1.025.026-2.051.067-3.072.067-65.142 0-118.139-52.996-118.139-118.138s52.997-118.138 118.139-118.138 118.138 52.997 118.138 118.138c0 10.32-1.341 20.509-3.958 30.375h-3.414c-15.648 0-28.38 12.731-28.38 28.379v12.381h-61.556c-9.792.001-17.758 7.967-17.758 17.759zm162.873-17.758h-49.519v-6.719h49.519zm35.186 16v23.731c0 2.295-1.939 4.234-4.234 4.234h-111.422c-2.295 0-4.234-1.939-4.234-4.234v-23.731zm-19.186-16v-12.381c0-5.701-4.638-10.338-10.338-10.338h-60.842c-5.701 0-10.339 4.638-10.339 10.338v12.381h-2.041v-12.381c0-6.826 5.554-12.379 12.38-12.379h60.842c6.826 0 12.379 5.553 12.379 12.379v12.381zm-204.696 129.565-11.34-29.459c-.947-2.461-3.048-4.298-5.613-4.909-17.601-4.188-34.36-11.137-49.813-20.651-2.248-1.384-5.032-1.57-7.441-.499l-28.871 12.823-32.176-32.176 12.818-28.86c1.07-2.411.884-5.195-.5-7.442-9.514-15.448-16.463-32.211-20.654-49.826-.61-2.566-2.446-4.667-4.908-5.614l-29.452-11.336v-45.503l29.455-11.338c2.462-.947 4.298-3.047 4.908-5.614 4.19-17.605 11.139-34.366 20.653-49.816 1.384-2.247 1.57-5.031.5-7.442l-12.821-28.868 32.175-32.176 28.872 12.823c2.409 1.07 5.195.884 7.441-.5 15.452-9.515 32.212-16.463 49.812-20.651 2.565-.611 4.666-2.447 5.613-4.909l11.34-29.459h45.502l11.34 29.459c.947 2.461 3.048 4.298 5.613 4.909 17.601 4.188 34.36 11.137 49.812 20.651 2.248 1.384 5.032 1.569 7.441.5l28.872-12.823 32.176 32.176-12.818 28.859c-1.07 2.412-.884 5.196.5 7.442 9.516 15.451 16.465 32.215 20.653 49.826.611 2.566 2.447 4.667 4.909 5.615l29.451 11.335v45.503l-22.086 8.501c-2.242-.572-4.589-.877-7.007-.877h-40.935c2.297-9.916 3.465-20.091 3.465-30.375 0-73.964-60.174-134.138-134.138-134.138s-134.136 60.174-134.136 134.138 60.175 134.138 134.139 134.138c1.021 0 2.046-.013 3.072-.036v1.217c0 9.552 3.905 18.093 11.598 25.446v39.936zm263.406 53.128h-198.941c-6.09 0-11.044-4.954-11.044-11.044v-71.124c21.33 10.207 55.473 14.073 78.786 15.532 1.955 15.776 15.434 28.029 31.729 28.029 16.304 0 29.788-12.266 31.731-28.054 20.914-1.348 56.861-5.122 78.783-15.528v71.145c.001 6.09-4.954 11.044-11.044 11.044z"/></svg>