<?xml version="1.0" encoding="UTF-8" standalone="no"?>
<!-- Created with Inkscape (http://www.inkscape.org/) -->

<svg
   version="1.1"
   id="svg4038"
   xml:space="preserve"
   width="682.66669"
   height="682.66669"
   viewBox="0 0 682.66669 682.66669"
   xmlns="http://www.w3.org/2000/svg"
   xmlns:svg="http://www.w3.org/2000/svg"><defs
     id="defs4042"><clipPath
       clipPathUnits="userSpaceOnUse"
       id="clipPath4052"><path
         d="M 0,512 H 512 V 0 H 0 Z"
         id="path4050" /></clipPath></defs><g
     id="g4044"
     transform="matrix(1.3333333,0,0,-1.3333333,0,682.66667)"><g
       id="g4046"><g
         id="g4048"
         clip-path="url(#clipPath4052)"><g
           id="g4054"
           transform="translate(437.0875,422.7533)"><path
             d="m 0,0 c 40.404,-43.855 65.081,-102.422 65.081,-166.753 0,-135.955 -110.214,-246.168 -246.168,-246.168 -135.955,0 -246.169,110.213 -246.169,246.168 0,135.955 110.214,246.168 246.169,246.168 10.161,0 20.179,-0.616 30.018,-1.812"
             style="fill:none;stroke:#000000;stroke-width:20;stroke-linecap:round;stroke-linejoin:round;stroke-miterlimit:10;stroke-dasharray:none;stroke-opacity:1"
             id="path4056" /></g><g
           id="g4058"
           transform="translate(159.6039,409.242)"><path
             d="m 0,0 c 69.932,44.079 163.466,35.661 224.382,-25.256 70.685,-70.685 70.685,-185.287 0,-255.972 -70.684,-70.685 -185.287,-70.685 -255.972,0 -61.007,61.006 -69.36,154.727 -25.06,224.692"
             style="fill:none;stroke:#000000;stroke-width:20;stroke-linecap:round;stroke-linejoin:round;stroke-miterlimit:10;stroke-dasharray:none;stroke-opacity:1"
             id="path4060" /></g><g
           id="g4062"
           transform="translate(435.3333,386.1668)"><path
             d="M 0,0 V 38 H 38"
             style="fill:none;stroke:#000000;stroke-width:20;stroke-linecap:round;stroke-linejoin:round;stroke-miterlimit:10;stroke-dasharray:none;stroke-opacity:1"
             id="path4064" /></g><g
           id="g4066"
           transform="translate(231.5501,256)"><path
             d="M 0,0 C 0,-13.503 10.947,-24.45 24.45,-24.45 37.953,-24.45 48.9,-13.503 48.9,0 48.9,13.503 37.953,24.45 24.45,24.45 10.947,24.45 0,13.503 0,0 Z"
             style="fill:none;stroke:#000000;stroke-width:20;stroke-linecap:round;stroke-linejoin:round;stroke-miterlimit:10;stroke-dasharray:none;stroke-opacity:1"
             id="path4068" /></g><g
           id="g4070"
           transform="translate(398.3333,255.8374)"><path
             d="M 0,0 H -12.333"
             style="fill:none;stroke:#000000;stroke-width:20;stroke-linecap:round;stroke-linejoin:round;stroke-miterlimit:10;stroke-dasharray:none;stroke-opacity:1"
             id="path4072" /></g><g
           id="g4074"
           transform="translate(113.6667,256.1626)"><path
             d="M 0,0 H 12.333"
             style="fill:none;stroke:#000000;stroke-width:20;stroke-linecap:round;stroke-linejoin:round;stroke-miterlimit:10;stroke-dasharray:none;stroke-opacity:1"
             id="path4076" /></g><g
           id="g4078"
           transform="translate(256.1626,398.3333)"><path
             d="M 0,0 V -12.333"
             style="fill:none;stroke:#000000;stroke-width:20;stroke-linecap:round;stroke-linejoin:round;stroke-miterlimit:10;stroke-dasharray:none;stroke-opacity:1"
             id="path4080" /></g><g
           id="g4082"
           transform="translate(255.8374,113.6667)"><path
             d="M 0,0 V 12.333"
             style="fill:none;stroke:#000000;stroke-width:20;stroke-linecap:round;stroke-linejoin:round;stroke-miterlimit:10;stroke-dasharray:none;stroke-opacity:1"
             id="path4084" /></g><g
           id="g4086"
           transform="translate(238.7113,273.2887)"><path
             d="M 0,0 -39.907,39.907"
             style="fill:none;stroke:#000000;stroke-width:20;stroke-linecap:round;stroke-linejoin:round;stroke-miterlimit:10;stroke-dasharray:none;stroke-opacity:1"
             id="path4088" /></g><g
           id="g4090"
           transform="translate(273.2887,273.2887)"><path
             d="M 0,0 74.398,74.398"
             style="fill:none;stroke:#000000;stroke-width:20;stroke-linecap:round;stroke-linejoin:round;stroke-miterlimit:10;stroke-dasharray:none;stroke-opacity:1"
             id="path4092" /></g><g
           id="g4094"
           transform="translate(128.0137,383.9863)"><path
             d="M 0,0 V 0"
             style="fill:none;stroke:#000000;stroke-width:20;stroke-linecap:round;stroke-linejoin:round;stroke-miterlimit:10;stroke-dasharray:none;stroke-opacity:1"
             id="path4096" /></g><g
           id="g4098"
           transform="translate(325.2751,492.2863)"><path
             d="M 0,0 V 0"
             style="fill:none;stroke:#000000;stroke-width:20;stroke-linecap:round;stroke-linejoin:round;stroke-miterlimit:10;stroke-dasharray:none;stroke-opacity:1"
             id="path4100" /></g></g></g></g></svg>
