<svg id="svg8" height="512" viewBox="0 0 16.933333 16.933333" width="512" xmlns="http://www.w3.org/2000/svg" xmlns:svg="http://www.w3.org/2000/svg"><g id="layer2"><path id="path820" d="m11.36316.00001009c-.352112 0-.355572.5287034.002.52865074 1.959974-.00028866 3.740614 1.13425167 4.568605 2.90938397.828001 1.7751325.550127 3.8668155-.710013 5.3676376-1.132104 1.3483206-2.872105 1.9949326-4.586696 1.7456306l.41753-.29921c.294761-.21291-.01344-.6388886-.306982-.4299498l-.9120586.6526698c-.1204671.0847-.1485766.251512-.062498.371042l.6542056.91208c.204664.29264.641614-.0209.42994-.3085l-.264574-.36897c1.883896.26232 3.794132-.454172 5.037294-1.9347722 1.391498-1.6572822 1.696241-3.9710455.781842-5.9314281-.961977-2.0404534-2.96382-3.21426461-5.048595-3.21426461zm.0137 1.84950261c-2.0431141 0-3.7030459 1.6678824-3.7030459 3.7170852 0 2.0492128 1.6599318 3.7165752 3.7030459 3.7165752 2.043112 0 3.705114-1.6673624 3.705114-3.7165752 0-2.0492028-1.662002-3.7170852-3.705114-3.7170852zm0 .5296808c1.756059 0 3.175956 1.423122 3.175956 3.1874044 0 1.7642924-1.419897 3.1874043-3.175956 3.1874043-1.7560605 0-3.173378-1.4231119-3.173378-3.1874043 0-1.7642824 1.4173175-3.1874044 3.173378-3.1874044zm.001.796331c-.129648-.0007601-.259774.0864-.265614.2640704v.2769903c-.518338.1167503-.91207.5683409-.91207 1.1224118 0 .3901104.196896.6130805.43356.7286409.236665.1155602.48859.1323001.716734.1560602.228154.023799.43342.0544.538978.1059301.0653.0363.136936.0714.136936.2516705 0 .3378305-.278194.6198407-.638704.6232207-.302634-.006-.540088-.1918101-.640776-.5234908-.116058-.3333203-.601466-.1787802-.505388.1602002.170246.5273809.524498.7703511.87073.8593814v.2077403c.0189.3575803.523988.3446802.529158 0v-.2051604c.519398-.1163702.914118-.5732507.914128-1.1218914 0-.3849307-.196886-.6110012-.43355-.7265713-.236664-.11556-.488578-.1322999-.716734-.1560601-.228144-.023799-.43342-.0559-.538977-.10749-.0785-.0383-.136937-.0891-.136937-.2521803 0-.3440205.278204-.613641.638706-.6170211.324362.012599.534928.1830205.640774.5178008.112998.3269305.596168.1879203.5059-.1586502-.130998-.4143106-.409642-.7412211-.87331-.8588612v-.2826704c-.005-.1746103-.133888-.2633105-.263544-.2640704zm-7.561122 7.9628305c-.3034033.14526-.5544474.27374-.7441231.37621-.1372468-.23943-.396841-.40153-.6898642-.40153h-1.58746894c-.44537977 0-.79528176.36014-.79528176.7953v3.702626c0 .43516.35282191.795301.79528176.795301h1.58746364c.4351501 0 .7933227-.35041.7927016-.795301l.0005292-.0455c.5160882-.0836 1.0080969-.19597 1.5874637-.21808.3270725.00001.9389683.46354 1.3363192.74415.566217.399692 1.1761231.841802 1.8375678.841802.1991056 0 .3985911-.0655.661965-.16381 1.4474571-.541142 4.5005671-2.268404 6.2790561-3.308846.393801-.21777.556507-.68579.420641-1.09451-.0194-.0584-.0447-.116-.0765-.17105-.243936-.422512-.739114-.525412-1.220572-.361222l-3.702544 1.282102c-.0648-.27417-.239104-.51971-.5007388-.67077-1.034845-.554892-2.1077604-1.125042-3.1661361-1.556492-.3328824-.12645-.7252081-.301426-1.1088367-.305216-.3836285-.00379-1.1267269.277066-1.7069234.554836zm2.6189403.2403c1.0845852.46055 2.0346433.947402 3.0974089 1.525492.2968829.17141.3154924.51438.1953355.722432-.1410467.24432-.466639.34266-.7244832.19379l-1.6040033-.926042c-.3140728-.21258-.6049462.29217-.2635439.45734l1.6034832.925522c.5037886.29087 1.1550235.11729 1.4458765-.38654.0381-.066.07-.13678.0925-.2067l3.896832-1.350312c.340322-.1158.541506.003.612866.17415.0714.1712.0129.39485-.165367.48989-2.069433 1.192862-4.7627912 2.723614-6.2082579 3.275774-.2407747.0898-.4354403.132811-.4769692.132811-.3968607 0-.9749677-.352151-1.5332048-.746211-.3786214-.25481-1.0622158-.832272-1.6406825-.841812-.4280601.001-1.1244442.12465-1.5874637.209812v-2.964686s.4416999-.24573.8665904-.44648c.5487573-.25931 1.1508835-.50385 1.4528855-.50185.3020021.002.6779935.15805.9401975.26362zm-5.64035694.26355h1.58746404c.1547751 0 .2635044.125277.2635044.26665 0 1.367352.0005292 3.439376.0005292 3.702106 0 .14392-.1165274.266081-.263544.26613l-1.58798354.000529c-.14186599.000047-.2656023-.115509-.26562315-.266659l-.00051065-3.702626c-.00002242-.162539.13066813-.26613.2661637-.26613zm.26354404 3.440106c-.000005.146126.1184621.26458.2645738.26458s.265094-.111218.265094-.26458-.1220786-.264582-.2678828-.264582-.26178.118456-.261785.264582z"/></g></svg>