<svg id="fb6415a6-ea2d-40c2-9ed4-d79e47cad4a2" height="512" viewBox="0 0 60 60" width="512" xmlns="http://www.w3.org/2000/svg" data-name="Icons"><path d="m48.76 53h-42.76a5 5 0 0 1 -5-5v-42a5 5 0 0 1 5-5h42a5 5 0 0 1 5 5v42.76z" fill="#b0d3f0"/><path d="m53 6v7h-52v-7a5 5 0 0 1 5-5h42a5 5 0 0 1 5 5z" fill="#4482c3"/><circle cx="7" cy="7" fill="#f3d55b" r="2"/><circle cx="15" cy="7" fill="#ff5364" r="2"/><circle cx="23" cy="7" fill="#65ddb9" r="2"/><path d="m47 9a2 2 0 0 0 0-4h-8a2 2 0 0 0 0 4z" fill="#fff"/><path d="m11 50a1 1 0 0 1 -1-1v-32a1 1 0 0 1 2 0v32a1 1 0 0 1 -1 1z" fill="#90bae1"/><path d="m7 19h-2a1 1 0 0 1 0-2h2a1 1 0 0 1 0 2z" fill="#fb7b76"/><path d="m20 19h-5a1 1 0 0 1 0-2h5a1 1 0 0 1 0 2z" fill="#90bae1"/><path d="m7 24h-2a1 1 0 0 1 0-2h2a1 1 0 0 1 0 2z" fill="#fb7b76"/><path d="m16 24h-1a1 1 0 0 1 0-2h1a1 1 0 0 1 0 2z" fill="#90bae1"/><path d="m7 29h-2a1 1 0 0 1 0-2h2a1 1 0 0 1 0 2z" fill="#fb7b76"/><path d="m16 29h-1a1 1 0 0 1 0-2h1a1 1 0 0 1 0 2z" fill="#90bae1"/><path d="m7 34h-2a1 1 0 0 1 0-2h2a1 1 0 0 1 0 2z" fill="#fb7b76"/><path d="m7 39h-2a1 1 0 0 1 0-2h2a1 1 0 0 1 0 2z" fill="#fb7b76"/><path d="m16 39h-1a1 1 0 0 1 0-2h1a1 1 0 0 1 0 2z" fill="#90bae1"/><path d="m7 44h-2a1 1 0 0 1 0-2h2a1 1 0 0 1 0 2z" fill="#fb7b76"/><path d="m17 44h-2a1 1 0 0 1 0-2h2a1 1 0 0 1 0 2z" fill="#90bae1"/><path d="m7 49h-2a1 1 0 0 1 0-2h2a1 1 0 0 1 0 2z" fill="#fb7b76"/><path d="m19 49h-4a1 1 0 0 1 0-2h4a1 1 0 0 1 0 2z" fill="#90bae1"/><path d="m43.986 43.321h3.988v5.317h-3.988z" fill="#a5a5a4" transform="matrix(.707 -.707 .707 .707 -19.045 45.98)"/><path d="m49 33a14.758 14.758 0 0 1 -.08 1.5 1 1 0 0 1 -.83.85l-2.38.39a13.071 13.071 0 0 1 -1.79 4.3l1.41 1.97a.99.99 0 0 1 -.01 1.19 14.891 14.891 0 0 1 -1.01 1.11c-.36.36-.73.69-1.11 1.01a.99.99 0 0 1 -1.19.01l-1.97-1.41a13.071 13.071 0 0 1 -4.3 1.79l-.39 2.38a.986.986 0 0 1 -.85.83 14.1 14.1 0 0 1 -3 0 .986.986 0 0 1 -.85-.83l-.39-2.38a13.071 13.071 0 0 1 -4.3-1.79l-1.97 1.41a.99.99 0 0 1 -1.19-.01c-.38-.32-.75-.65-1.11-1.01a14.891 14.891 0 0 1 -1.01-1.11.99.99 0 0 1 -.01-1.19l1.41-1.97a13.071 13.071 0 0 1 -1.79-4.3l-2.38-.39a1 1 0 0 1 -.83-.85 14.1 14.1 0 0 1 0-3 .986.986 0 0 1 .83-.85l2.38-.39a13.071 13.071 0 0 1 1.79-4.3l-1.41-1.97a.99.99 0 0 1 .01-1.19 13.141 13.141 0 0 1 1.01-1.11 14.891 14.891 0 0 1 1.11-1.01.99.99 0 0 1 1.19-.01l1.97 1.41a13.071 13.071 0 0 1 4.3-1.79l.39-2.38a.986.986 0 0 1 .85-.83 14.1 14.1 0 0 1 3 0 .986.986 0 0 1 .85.83l.39 2.38a13.071 13.071 0 0 1 4.3 1.79l1.97-1.41a.99.99 0 0 1 1.19.01 14.891 14.891 0 0 1 1.11 1.01 13.141 13.141 0 0 1 1.01 1.11.99.99 0 0 1 .01 1.19l-1.41 1.97a13.071 13.071 0 0 1 1.79 4.3l2.38.39a.986.986 0 0 1 .83.85 14.758 14.758 0 0 1 .08 1.5z" fill="#4482c3"/><circle cx="33" cy="33" fill="#fff" r="9"/><path d="m31 36a1 1 0 0 1 -.707-.293l-2-2a1 1 0 0 1 0-1.414l2-2a1 1 0 0 1 1.414 1.414l-1.293 1.293 1.293 1.293a1 1 0 0 1 -.707 1.707z" fill="#4482c3"/><path d="m35 36a1 1 0 0 1 -.707-1.707l1.293-1.293-1.293-1.293a1 1 0 0 1 1.414-1.414l2 2a1 1 0 0 1 0 1.414l-2 2a1 1 0 0 1 -.707.293z" fill="#4482c3"/><path d="m56 59a2.988 2.988 0 0 1 -2.121-.879l-6.561-6.56a3 3 0 1 1 4.243-4.243l6.56 6.561a3 3 0 0 1 -2.121 5.121z" fill="#3f5c6c"/></svg>