<svg id="Capa_1" enable-background="new 0 0 511.688 511.688" height="512" viewBox="0 0 511.688 511.688" width="512" xmlns="http://www.w3.org/2000/svg"><g><g><g><path d="m175.312.347c-8.284 0-15 6.716-15 15v480.994c0 8.284 6.716 15 15 15h160.688l10-270.994-10-240h-160.688z" fill="#e7f2ff"/><path d="m496.688.347h-160.688v510.994h160.688c8.284 0 15-6.716 15-15v-480.994c0-8.284-6.716-15-15-15z" fill="#d0e8ff"/></g><g><g><path d="m250.311 390.347c-8.284 0-15 6.716-15 15s6.716 15 15 15h85.689l10-15-10-15z" fill="#9dcfff"/><path d="m421.688 390.347h-85.688v30h85.688c8.284 0 15-6.716 15-15s-6.715-15-15-15z" fill="#75bcff"/></g><g><path d="m250.311 330.347c-8.284 0-15 6.716-15 15s6.716 15 15 15h85.689l10-15-10-15z" fill="#9dcfff"/><path d="m421.688 330.347h-85.688v30h85.688c8.284 0 15-6.716 15-15s-6.715-15-15-15z" fill="#75bcff"/></g><g><path d="m250.311 270.347c-8.284 0-15 6.716-15 15s6.716 15 15 15h85.689l10-15-10-15z" fill="#9dcfff"/><path d="m421.688 270.347h-85.688v30h85.688c8.284 0 15-6.716 15-15s-6.715-15-15-15z" fill="#75bcff"/></g><g><path d="m250.311 210.347c-8.284 0-15 6.716-15 15s6.716 15 15 15h85.689l10-15-10-15z" fill="#9dcfff"/><path d="m421.688 210.347h-85.688v30h85.688c8.284 0 15-6.716 15-15s-6.715-15-15-15z" fill="#75bcff"/></g><g><path d="m250.311 150.347c-8.284 0-15 6.716-15 15s6.716 15 15 15h85.689l10-15-10-15z" fill="#9dcfff"/><path d="m421.688 150.347h-85.688v30h85.688c8.284 0 15-6.716 15-15s-6.715-15-15-15z" fill="#75bcff"/></g><g><path d="m250.311 90.347c-8.284 0-15 6.716-15 15s6.716 15 15 15h85.689l10-15-10-15z" fill="#9dcfff"/><path d="m421.688 90.347h-85.688v30h85.688c8.284 0 15-6.716 15-15s-6.715-15-15-15z" fill="#75bcff"/></g></g></g><g><path d="m94.21 364.119c-3.835 0-7.67-1.462-10.599-4.386-5.862-5.853-5.869-15.35-.016-21.213l42.333-42.396c5.853-5.861 15.349-5.87 21.213-.016 5.862 5.854 5.869 15.351.016 21.213l-42.333 42.396c-2.93 2.934-6.772 4.402-10.614 4.402z" fill="#414c7f"/><path d="m230.886 355.784c-38.305 0-74.316-14.917-101.402-42.003-55.913-55.913-55.913-146.892 0-202.805 27.086-27.086 63.098-42.003 101.402-42.003 38.306 0 74.317 14.917 101.402 42.003 27.086 27.086 42.003 63.098 42.003 101.402 0 38.303-14.92 74.317-42.003 101.402-.001.002.002-.002 0 0-27.084 27.087-63.096 42.004-101.402 42.004z" fill="#75bcff"/><path d="m230.886 325.784c-30.291 0-58.77-11.797-80.189-33.216-44.216-44.217-44.216-116.162 0-160.379 21.42-21.419 49.898-33.216 80.189-33.216 22.719 0 44.417 6.635 62.883 18.989l7.306 14.226 24.138 17.175c6.205 9.247 10.975 19.308 14.193 29.903l-6.577 14.795 11.423 15.303c.026 1.003.039 2.007.039 3.014 0 9.213-1.091 18.258-3.213 26.988l-14.64 14.643 3.407 13.858c-5.031 8.941-11.319 17.248-18.771 24.701-21.418 21.42-49.896 33.216-80.188 33.216z" fill="#e7f2ff"/><g fill="#9dcfff"><path d="m341.072 239.365h-116.572c-8.284 0-15 6.716-15 15s6.716 15 15 15h104.478c5.463-9.367 9.531-19.452 12.094-30z"/><path d="m339.436 179.365h-114.936c-8.284 0-15 6.716-15 15s6.716 15 15 15h119.75c-.267-10.301-1.899-20.371-4.814-30z"/><path d="m311.075 132.189c-4.758-4.759-9.867-9.039-15.265-12.824h-71.31c-8.284 0-15 6.716-15 15s6.716 15 15 15h100.711c-4.097-6.106-8.819-11.859-14.136-17.176z"/></g><path d="m45.082 443.287c-12.047 0-23.374-4.692-31.893-13.211-.001-.001 0 0-.001 0-17.584-17.585-17.584-46.198 0-63.785l49.097-49.096c5.857-5.858 15.355-5.858 21.213 0l42.572 42.572c5.858 5.857 5.858 15.355 0 21.213l-49.096 49.096c-8.518 8.52-19.845 13.211-31.892 13.211z" fill="#fedc47"/></g></g></svg>