<svg id="Layer_1" enable-background="new 0 0 512 512" height="512" viewBox="0 0 512 512" width="512" xmlns="http://www.w3.org/2000/svg"><path d="m505.323 75.467c-81.761-51.5-146.15-74.467-208.776-74.467s-127.013 22.967-208.773 74.467c-2.326 1.465-3.736 4.021-3.736 6.769v163.949c0 5.363.213 10.721.619 16.005-47.804 18.861-81.717 65.513-81.717 119.938 0 71.06 57.812 128.872 128.873 128.872 44.134 0 83.153-22.305 106.389-56.229l53.678 38.579c1.395 1.002 3.032 1.504 4.669 1.504s3.274-.501 4.669-1.504l128.441-92.316c51.202-36.799 79.401-91.792 79.401-154.848v-163.95c0-2.748-1.411-5.304-3.737-6.769zm-373.51 419.533c-62.238 0-112.873-50.634-112.873-112.872s50.634-112.872 112.873-112.872c62.238 0 112.872 50.634 112.872 112.872s-50.634 112.872-112.872 112.872zm5.459-248.815v-138.566c120.01-70.708 198.542-70.708 318.554 0v138.566c0 46.111-19.792 84.709-57.236 111.621l-102.042 73.342-37.734-27.12c1.224-7.12 1.87-14.436 1.87-21.9 0-10.406-1.249-20.524-3.588-30.222h116.559c15.85 0 28.745-12.895 28.745-28.745v-125.486c0-15.85-12.895-28.745-28.745-28.745h-2.298v-27.157c0-41.249-33.559-74.808-74.809-74.808s-74.809 33.559-74.809 74.808v27.157h-2.298c-15.85 0-28.745 12.895-28.745 28.745v69.842c-16.09-8.3-34.143-13.305-53.261-14.13-.108-2.388-.163-4.794-.163-7.202zm218.086-77.255h-15.754v-27.157c0-23.74-19.314-43.054-43.055-43.054-23.74 0-43.054 19.314-43.054 43.054v27.157h-15.755v-27.157c0-32.427 26.381-58.808 58.809-58.808s58.809 26.381 58.809 58.808zm-31.754 0h-54.109v-27.157c0-14.917 12.136-27.054 27.054-27.054s27.055 12.136 27.055 27.054zm50.052 16c7.027 0 12.745 5.717 12.745 12.745v125.487c0 7.027-5.717 12.745-12.745 12.745h-121.55c-9.134-23.691-25.07-44.028-45.409-58.6v-79.632c0-7.027 5.717-12.745 12.745-12.745zm119.404 61.255c0 57.766-25.833 108.145-72.739 141.856l-123.772 88.96-50.11-36.015c3.316-6.431 6.104-13.175 8.312-20.176l37.13 26.686c1.395 1.002 3.032 1.504 4.669 1.504s3.274-.501 4.669-1.504l106.71-76.698c41.802-30.044 63.898-73.135 63.898-124.613v-143.122c0-2.815-1.48-5.424-3.897-6.868-67.015-40.034-119.871-57.887-171.38-57.887-.003 0 .002 0-.001 0-51.507 0-104.368 17.855-171.378 57.887-2.417 1.444-3.897 4.052-3.897 6.868v143.122c0 2.503.059 5.004.166 7.49-7.21.577-14.254 1.752-21.084 3.472-.205-3.633-.316-7.295-.316-10.962v-159.52c148.215-92.365 244.8-92.365 393.02 0zm-216.211 26.935v14.798c0 10.862 8.837 19.7 19.7 19.7s19.699-8.837 19.699-19.7v-14.798c8.424-6.2 13.488-16.045 13.488-26.714 0-18.3-14.888-33.188-33.188-33.188-18.299 0-33.187 14.888-33.187 33.188.001 10.668 5.065 20.512 13.488 26.714zm19.7-43.901c9.477 0 17.188 7.71 17.188 17.188 0 6.407-3.529 12.242-9.209 15.227-2.631 1.383-4.279 4.11-4.279 7.082v19.203c0 2.005-1.694 3.7-3.699 3.7s-3.7-1.694-3.7-3.7v-19.203c0-2.972-1.647-5.699-4.278-7.082-5.681-2.985-9.209-8.82-9.209-15.227-.001-9.478 7.709-17.188 17.186-17.188zm-136.246 140.835c9.705-8.147 15.888-20.359 15.888-33.991 0-24.47-19.908-44.378-44.378-44.378s-44.378 19.908-44.378 44.378c0 13.633 6.184 25.844 15.888 33.991-27.438 11.258-46.819 38.25-46.819 69.696 0 4.418 3.582 8 8 8h134.617c4.418 0 8-3.582 8-8 0-31.446-19.38-58.438-46.818-69.696zm-56.868-33.992c0-15.647 12.73-28.378 28.378-28.378 15.647 0 28.378 12.73 28.378 28.378 0 15.645-12.726 28.373-28.369 28.378-.003 0-.006 0-.01 0-.003 0-.006 0-.009 0-15.643-.005-28.368-12.733-28.368-28.378zm-30.393 95.688c3.917-28.93 28.775-51.304 58.761-51.309h.01s.007 0 .01 0c29.986.005 54.843 22.379 58.761 51.309z"/></svg>