<svg id="Glyph" viewBox="0 0 64 64" xmlns="http://www.w3.org/2000/svg"><path d="m9.4 39.08 2.4-2.4c.79-.79 1.71-1.44 2.7-1.94l-.58 6.41-2.06 5.37c-.49 1.29-1.23 2.45-2.19 3.44l-2.75 2.85c-.84.86-1.29 2.06-1.26 3.28.03 1.16.5 2.21 1.32 2.96.79.73 1.82 1.13 2.9 1.13 1.16 0 2.28-.48 3.07-1.3l4.93-5.08c.4-.42.72-.92.91-1.45l.41-1.07c.62.98 1.08 2.05 1.34 3.19l.79 3.42c.45 1.95 2.16 3.32 4.16 3.32.52 0 1.04-.1 1.53-.28 1.98-.75 3.1-2.95 2.6-5.11l-.63-2.72c-.61-2.66-1.71-5.15-3.25-7.4l-3.23-4.7.3-3.35c.35.28.72.52 1.14.68l3.67 1.39c.48.19 1 .29 1.54.29 1.75 0 3.35-1.1 3.99-2.75.84-2.2-.27-4.68-2.48-5.52l-1.05-.4c-1.23-.47-2.34-1.16-3.31-2.06l-3.13-2.91c2.75-.59 4.82-3.04 4.82-5.96 0-3.36-2.74-6.1-6.1-6.1s-6.1 2.74-6.1 6.1c0 1.67.68 3.19 1.77 4.29l-3.54 1.11c-3.31 1.04-6.36 2.89-8.81 5.35l-1.99 1.99c-.85.85-1.31 2.03-1.25 3.23s.62 2.33 1.56 3.1c1.68 1.38 4.24 1.22 5.84-.38zm7.51 12.56c-.1.28-.27.55-.48.76l-4.93 5.08c-.8.84-2.3.88-3.17.08-.42-.38-.66-.93-.68-1.54-.02-.68.23-1.35.7-1.83l2.75-2.85c1.15-1.19 2.03-2.57 2.62-4.12l.98-2.55 3.13 4.56-.92 2.39zm6.66-22.22 1.4 1.3c1.15 1.07 2.49 1.9 3.96 2.46l1.05.4c1.17.45 1.77 1.76 1.32 2.93-.45 1.15-1.82 1.76-2.94 1.31l-3.68-1.39c-.27-.1-.52-.27-.74-.47l-.9-.83.52-5.72zm-18.9 5.12 1.99-1.99c2.23-2.23 5-3.91 8-4.86l4-1.26h.01c.1-.03.2-.05.29-.07.03 0 .06 0 .09-.01.13-.03.26-.03.39-.02.05 0 .1.01.15.02.11.01.21.03.31.06.02 0 .04.01.05.01.04.01.08.02.12.03h.04c.13.06.25.12.37.18.06.04.12.08.18.12.05.03.09.06.13.1.18.15.34.32.48.53.27.41.39.96.33 1.54l-1.11 12.23c-.02.23.04.46.17.66l3.43 5c1.4 2.04 2.4 4.31 2.95 6.72l.63 2.72c.27 1.19-.31 2.39-1.36 2.79-1.29.49-2.73-.3-3.04-1.61l-.79-3.42c-.35-1.5-.96-2.9-1.83-4.17l-4.41-6.43c-.3-.44-.44-.97-.39-1.49l.78-8.61c.03-.33-.11-.66-.37-.87-.18-.15-.4-.22-.63-.22-.1 0-.2.02-.3.05-1.86.59-3.58 1.63-4.96 3.01l-2.4 2.4c-.88.88-2.26.99-3.15.25-.51-.42-.8-1-.83-1.65-.03-.64.21-1.27.66-1.72zm47.25-26.83v-2.25c0-1.48-1.46-2.65-3.32-2.65h-3.97c-1.86 0-3.31 1.16-3.31 2.65v2.21c-6.11 2.21-10.19 7.98-10.19 14.51 0 4.26 1.7 8.23 4.78 11.17 2.9 2.77 6.65 4.26 10.64 4.26.25 0 .51 0 .76-.02 7.98-.38 14.43-6.94 14.68-14.93.21-6.7-3.83-12.65-10.08-14.95zm-8.6-2.25c0-.23.5-.65 1.31-.65h3.97c.82 0 1.32.42 1.32.65v1.7c-.79-.15-1.63-.23-2.5-.23h-1.58c-.88-.01-1.72.07-2.52.21v-1.67zm10.54 17.5h1.37c-.45 4-3.62 7.19-7.61 7.67v-1.38c0-.55-.45-1-1-1s-1 .45-1 1v1.4c-4.02-.44-7.23-3.63-7.7-7.64h1.41c.55 0 1-.45 1-1s-.45-1-1-1h-1.42c.45-4.02 3.65-7.22 7.66-7.68v1.39c0 .55.45 1 1 1s1-.45 1-1v-1.39c4 .46 7.18 3.64 7.65 7.63h-1.36c-.55 0-1 .45-1 1s.45 1 1 1zm-3.23-5.23c.39.39.38 1.03 0 1.41l-3.3 3.26c-.19.19-.45.29-.7.29-.16 0-.32-.04-.46-.11l-2.93-1.54c-.49-.26-.68-.86-.42-1.35s.86-.68 1.35-.42l2.28 1.2 2.78-2.75c.39-.39 1.03-.38 1.41 0z"/></svg>